<svg width="32" height="32" viewBox="0 0 32 32" fill="none" xmlns="http://www.w3.org/2000/svg">
<circle cx="16" cy="16" r="16" fill="black"/>
<path d="M9.12212 24L11.7345 19.4921L14.3469 15L16.9434 10.4921L17.3735 9.77778L17.5646 10.4921L18.3611 13.4603L17.469 15L14.8566 19.4921L12.2602 24H15.3823L17.9947 19.4921L19.3487 17.1587L19.9858 19.4921L21.1965 24H24L22.7894 19.4921L21.5788 15L21.2602 13.8413L23.2035 10.4921H20.3681L20.2726 10.1587L19.285 6.47619L19.1575 6H16.4336L16.3699 6.09524L13.8212 10.4921L11.2088 15L8.61239 19.4921L6 24H9.12212Z" fill="white"/>
</svg>
