<svg width="32" height="32" viewBox="0 0 32 32" fill="none" xmlns="http://www.w3.org/2000/svg">
<circle cx="16" cy="16" r="16" fill="#E84142"/>
<path d="M20.4811 16.3882C20.9212 15.6624 21.6314 15.6624 22.0715 16.3882L24.8122 20.982C25.2523 21.7079 24.8922 22.3 24.012 22.3H18.4906C17.6204 22.3 17.2603 21.7079 17.6904 20.982L20.4811 16.3882ZM15.1798 7.54438C15.6199 6.81854 16.3201 6.81854 16.7602 7.54438L17.3703 8.59494L18.8107 11.0112C19.1608 11.6989 19.1608 12.5107 18.8107 13.1983L13.9795 21.1921C13.5394 21.8416 12.8092 22.2522 11.999 22.3H7.98803C7.10782 22.3 6.74773 21.7174 7.18784 20.982L15.1798 7.54438Z" fill="white"/>
</svg>
