<svg width="32" height="32" viewBox="0 0 32 32" fill="none" xmlns="http://www.w3.org/2000/svg">
<circle cx="16" cy="16" r="16" fill="#0033AD"/>
<path fill-rule="evenodd" clip-rule="evenodd" d="M15.9471 8.1071C16.0565 8.11333 16.1653 8.08697 16.2597 8.03135C16.3541 7.97574 16.43 7.89337 16.4776 7.79466C16.5252 7.69595 16.5424 7.58534 16.5272 7.47682C16.5119 7.3683 16.4648 7.26675 16.3918 7.18501C16.3188 7.10326 16.2232 7.045 16.1171 7.0176C16.011 6.9902 15.8991 6.99488 15.7957 7.03105C15.6923 7.06723 15.6019 7.13327 15.536 7.22083C15.47 7.30838 15.4316 7.41352 15.4254 7.52294C15.4172 7.66956 15.4675 7.81345 15.5653 7.92299C15.6632 8.03253 15.8005 8.09875 15.9471 8.1071ZM20.7668 8.38134C20.6806 8.38211 20.5961 8.35731 20.5241 8.31007C20.4275 8.2468 20.3601 8.14781 20.3365 8.03483C20.3129 7.92185 20.3351 7.80413 20.3983 7.70752C20.4454 7.63539 20.5129 7.57887 20.5922 7.5451C20.6714 7.51133 20.7589 7.50184 20.8436 7.51782C20.9283 7.5338 21.0063 7.57454 21.0678 7.63488C21.1293 7.69521 21.1716 7.77244 21.1892 7.85679C21.2068 7.94114 21.199 8.02882 21.1668 8.10873C21.1345 8.18864 21.0793 8.2572 21.0081 8.30572C20.9369 8.35425 20.8529 8.38056 20.7668 8.38134ZM11.3919 8.35581C11.4684 8.31655 11.5315 8.25556 11.5733 8.1805C11.6152 8.10544 11.6339 8.01968 11.6271 7.93401C11.6204 7.84834 11.5884 7.76659 11.5352 7.69905C11.4821 7.63151 11.4102 7.5812 11.3285 7.55445C11.2468 7.52771 11.1591 7.52572 11.0763 7.54874C10.9935 7.57176 10.9193 7.61876 10.8632 7.68382C10.8071 7.74889 10.7714 7.82911 10.7608 7.91438C10.7501 7.99966 10.7649 8.08618 10.8033 8.16305C10.8292 8.21451 10.8649 8.26035 10.9085 8.29792C10.9521 8.3355 11.0028 8.36407 11.0575 8.38199C11.1122 8.3999 11.1699 8.40682 11.2273 8.40232C11.2847 8.39783 11.3407 8.38202 11.3919 8.35581ZM11.8185 17.1444C11.5807 16.8774 11.4586 16.5268 11.4791 16.1698L11.4754 16.1705C11.4905 15.908 11.5821 15.6557 11.739 15.4446C11.8958 15.2336 12.111 15.0731 12.358 14.983C12.605 14.8928 12.873 14.877 13.1289 14.9374C13.3848 14.9978 13.6174 15.1318 13.798 15.3229C13.9786 15.514 14.0993 15.7538 14.1453 16.0127C14.1912 16.2716 14.1603 16.5382 14.0564 16.7798C13.9525 17.0213 13.7801 17.2271 13.5606 17.3718C13.3411 17.5165 13.084 17.5938 12.8211 17.5941H12.7475C12.3905 17.5732 12.0563 17.4115 11.8185 17.1444ZM6.21389 15.8879C6.28794 15.8443 6.37327 15.8235 6.45911 15.8283C6.51621 15.8314 6.57213 15.8458 6.62367 15.8705C6.6752 15.8953 6.72134 15.93 6.75942 15.9727C6.7975 16.0154 6.82677 16.0651 6.84556 16.1191C6.86435 16.1731 6.87228 16.2303 6.8689 16.2874C6.86397 16.3732 6.8337 16.4557 6.78193 16.5243C6.73016 16.5929 6.6592 16.6447 6.57803 16.673C6.49686 16.7013 6.40911 16.7049 6.32588 16.6834C6.24266 16.6619 6.16768 16.6161 6.11043 16.552C6.05318 16.4879 6.01623 16.4082 6.00425 16.3231C5.99226 16.2379 6.00578 16.1512 6.0431 16.0737C6.08041 15.9963 6.13985 15.9316 6.21389 15.8879ZM13.0428 10.4686C12.9774 10.5843 12.8791 10.6781 12.7604 10.738C12.6815 10.7778 12.5955 10.8016 12.5074 10.8082C12.4193 10.8147 12.3308 10.8039 12.2469 10.7762C12.163 10.7485 12.0854 10.7046 12.0184 10.6469C11.9515 10.5892 11.8966 10.5189 11.8569 10.44C11.7971 10.3212 11.7738 10.1874 11.7901 10.0554C11.8063 9.92343 11.8614 9.79923 11.9482 9.69851C12.035 9.59779 12.1497 9.52508 12.2779 9.48956C12.406 9.45404 12.5418 9.45732 12.6681 9.49896C12.7944 9.54061 12.9055 9.61877 12.9874 9.72355C13.0693 9.82834 13.1182 9.95504 13.1281 10.0877C13.138 10.2203 13.1083 10.3528 13.0428 10.4686ZM8.16339 12.3766C8.25497 12.4368 8.36235 12.4685 8.47195 12.4677C8.58155 12.4668 8.68845 12.4335 8.77911 12.3719C8.86977 12.3103 8.94012 12.2232 8.98127 12.1217C9.02241 12.0201 9.0325 11.9086 9.01025 11.8012C8.988 11.6939 8.93442 11.5956 8.85629 11.5187C8.77815 11.4419 8.67897 11.3899 8.5713 11.3694C8.46362 11.349 8.3523 11.3609 8.2514 11.4037C8.1505 11.4465 8.06457 11.5183 8.00448 11.6099C7.924 11.7327 7.89553 11.8824 7.92532 12.0261C7.95512 12.1699 8.04074 12.2959 8.16339 12.3766ZM8.60383 15.6757C8.71838 15.6082 8.85038 15.5762 8.98313 15.5837C9.16125 15.5939 9.32801 15.6744 9.44678 15.8076C9.56556 15.9407 9.62663 16.1155 9.61659 16.2936C9.60896 16.4264 9.56214 16.5539 9.48206 16.66C9.40198 16.7662 9.29223 16.8462 9.16667 16.89C9.04112 16.9338 8.90541 16.9394 8.77669 16.906C8.64796 16.8727 8.53201 16.802 8.44349 16.7027C8.35496 16.6035 8.29784 16.4803 8.27934 16.3486C8.26084 16.2169 8.28179 16.0827 8.33955 15.963C8.39731 15.8432 8.48927 15.7432 8.60383 15.6757ZM8.23784 20.1047C8.14007 20.1541 8.05914 20.2314 8.00529 20.3268C7.95144 20.4222 7.92708 20.5314 7.93529 20.6406C7.9435 20.7499 7.98392 20.8542 8.05143 20.9405C8.11894 21.0268 8.21051 21.0911 8.31457 21.1253C8.41863 21.1596 8.53051 21.1622 8.63606 21.1329C8.74161 21.1035 8.83609 21.0436 8.90757 20.9606C8.97904 20.8775 9.0243 20.7752 9.03762 20.6664C9.05094 20.5577 9.03172 20.4475 8.98239 20.3497C8.94962 20.2847 8.90435 20.2268 8.84919 20.1793C8.79402 20.1318 8.73004 20.0956 8.66089 20.0729C8.59174 20.0501 8.51879 20.0412 8.4462 20.0467C8.37361 20.0521 8.30281 20.0718 8.23784 20.1047ZM11.2895 14.3234C11.1329 14.3248 10.9795 14.2797 10.8485 14.1939C10.7615 14.137 10.6865 14.0635 10.6279 13.9775C10.5693 13.8916 10.5283 13.7949 10.5071 13.6931C10.4859 13.5913 10.485 13.4863 10.5045 13.3841C10.5239 13.282 10.5633 13.1846 10.6204 13.0977C10.7063 12.9668 10.829 12.8643 10.9732 12.8031C11.1173 12.7419 11.2763 12.7249 11.4301 12.7541C11.5839 12.7833 11.7256 12.8574 11.8373 12.9672C11.949 13.0769 12.0256 13.2173 12.0575 13.3706C12.0894 13.5238 12.0751 13.6831 12.0164 13.8283C11.9578 13.9735 11.8574 14.098 11.728 14.1861C11.5986 14.2742 11.446 14.322 11.2895 14.3234ZM19.1447 10.6848C19.2562 10.7575 19.3867 10.7956 19.5198 10.7941C19.6529 10.7927 19.7826 10.7518 19.8925 10.6766C20.0024 10.6015 20.0875 10.4954 20.1371 10.3719C20.1868 10.2484 20.1986 10.1129 20.1713 9.98266C20.1439 9.85239 20.0786 9.73315 19.9835 9.64001C19.8884 9.54687 19.7678 9.48402 19.637 9.45941C19.5061 9.43479 19.371 9.44951 19.2485 9.50171C19.126 9.55391 19.0218 9.64124 18.949 9.75266C18.9005 9.82667 18.8671 9.90953 18.8507 9.99648C18.8343 10.0834 18.8352 10.1728 18.8533 10.2594C18.8715 10.346 18.9066 10.4281 18.9566 10.5011C19.0066 10.5741 19.0705 10.6366 19.1447 10.6848ZM19.2496 14.8879C19.073 14.8778 18.8962 14.9025 18.7292 14.9607C18.5622 15.0189 18.4083 15.1094 18.2762 15.2271C18.0096 15.4648 17.8483 15.7986 17.8278 16.1552C17.8073 16.5118 17.9293 16.8619 18.167 17.1286C18.4047 17.3952 18.7385 17.5565 19.0951 17.577H19.1731C19.4328 17.5769 19.687 17.5016 19.905 17.3602C20.1229 17.2189 20.2953 17.0175 20.4014 16.7804C20.5075 16.5433 20.5427 16.2806 20.5028 16.0239C20.4629 15.7672 20.3496 15.5275 20.1766 15.3338C20.0594 15.2016 19.9171 15.0942 19.7579 15.0176C19.5988 14.9411 19.426 14.897 19.2496 14.8879ZM13.6967 14.6421C13.484 14.5113 13.3122 14.3236 13.2004 14.1003C13.0976 13.8951 13.049 13.667 13.0591 13.4377C13.0691 13.2085 13.1377 12.9856 13.2581 12.7902C13.3785 12.5948 13.5469 12.4334 13.7471 12.3214C13.9474 12.2093 14.173 12.1503 14.4026 12.1499C14.6517 12.1487 14.8963 12.2169 15.1088 12.3469C15.3214 12.4768 15.4936 12.6633 15.6062 12.8856C15.7102 13.091 15.7598 13.3196 15.7503 13.5497C15.7408 13.7797 15.6725 14.0034 15.5519 14.1996C15.4314 14.3957 15.2625 14.5576 15.0616 14.6699C14.8606 14.7823 14.6342 14.8412 14.404 14.8412C14.1543 14.842 13.9093 14.773 13.6967 14.6421ZM23.7608 12.3753C23.8586 12.3259 23.9395 12.2487 23.9935 12.1533C24.0474 12.058 24.0718 11.9488 24.0637 11.8396C24.0555 11.7303 24.0152 11.626 23.9478 11.5396C23.8804 11.4533 23.7888 11.3889 23.6848 11.3546C23.5808 11.3203 23.469 11.3175 23.3634 11.3468C23.2578 11.376 23.1633 11.4359 23.0917 11.5188C23.0202 11.6017 22.9748 11.704 22.9614 11.8127C22.948 11.9214 22.967 12.0317 23.0162 12.1295C23.0825 12.2608 23.1981 12.3604 23.3377 12.4065C23.4773 12.4525 23.6295 12.4413 23.7608 12.3753ZM20.0131 13.1207C20.0902 12.9844 20.2061 12.8741 20.3459 12.8037C20.4387 12.7568 20.5399 12.7287 20.6436 12.721C20.7473 12.7133 20.8515 12.7261 20.9502 12.7587C21.049 12.7913 21.1403 12.843 21.219 12.911C21.2978 12.9789 21.3623 13.0617 21.409 13.1546C21.4794 13.2944 21.5068 13.452 21.4877 13.6074C21.4685 13.7628 21.4038 13.9091 21.3015 14.0276C21.1993 14.1462 21.0642 14.2318 20.9133 14.2736C20.7624 14.3154 20.6025 14.3115 20.4538 14.2624C20.3051 14.2133 20.1744 14.1213 20.078 13.9979C19.9817 13.8745 19.9241 13.7253 19.9125 13.5691C19.9009 13.413 19.936 13.2569 20.0131 13.1207ZM16.3847 11.4852C16.2499 11.5647 16.0945 11.6025 15.9382 11.5937C15.7285 11.5818 15.5321 11.487 15.3922 11.3303C15.2523 11.1736 15.1803 10.9677 15.1922 10.758C15.2012 10.6017 15.2563 10.4516 15.3505 10.3266C15.4448 10.2017 15.574 10.1075 15.7218 10.0559C15.8695 10.0043 16.0293 9.99775 16.1808 10.037C16.3324 10.0762 16.4689 10.1594 16.5731 10.2762C16.6773 10.393 16.7446 10.538 16.7664 10.693C16.7882 10.848 16.7636 11.006 16.6957 11.147C16.6277 11.288 16.5195 11.4057 16.3847 11.4852ZM11.6556 19.6747C11.7954 19.6042 11.9112 19.4938 11.9883 19.3575C12.0654 19.2212 12.1003 19.0651 12.0887 18.909C12.0771 18.7528 12.0194 18.6037 11.9229 18.4803C11.8265 18.3569 11.6957 18.2649 11.5469 18.2159C11.3982 18.1669 11.2383 18.1632 11.0874 18.2051C10.9365 18.247 10.8015 18.3327 10.6993 18.4513C10.5972 18.57 10.5325 18.7163 10.5135 18.8717C10.4945 19.0271 10.522 19.1847 10.5925 19.3245C10.6871 19.5119 10.8522 19.654 11.0516 19.7197C11.2509 19.7854 11.4682 19.7692 11.6556 19.6747ZM16.2354 13.5959C16.211 13.2973 16.287 12.9992 16.4512 12.7486C16.5739 12.5615 16.7413 12.408 16.9382 12.3018C17.1351 12.1955 17.3553 12.14 17.579 12.1402C17.8786 12.1405 18.1695 12.2408 18.4056 12.4251C18.6418 12.6094 18.8097 12.8672 18.8829 13.1577C18.9561 13.4482 18.9302 13.7548 18.8096 14.029C18.6889 14.3031 18.4802 14.5292 18.2165 14.6715C17.9529 14.8137 17.6493 14.8639 17.3539 14.8142C17.0585 14.7645 16.7881 14.6177 16.5855 14.3971C16.3829 14.1764 16.2597 13.8945 16.2354 13.5959ZM18.7918 18.379C18.6839 18.1651 18.5209 17.9838 18.3197 17.8539C18.1184 17.7241 17.8861 17.6502 17.6467 17.6401C17.4074 17.6299 17.1696 17.6838 16.9581 17.7962C16.7465 17.9086 16.5687 18.0754 16.4431 18.2794C16.3175 18.4834 16.2487 18.7172 16.2436 18.9567C16.2385 19.1962 16.2974 19.4327 16.4143 19.6419C16.5311 19.851 16.7016 20.0252 16.9082 20.1464C17.1148 20.2677 17.3501 20.3316 17.5896 20.3316C17.8004 20.3301 18.0079 20.2798 18.1959 20.1844C18.5138 20.0235 18.755 19.7432 18.8667 19.4048C18.9784 19.0664 18.9515 18.6976 18.7918 18.379ZM20.705 18.1553C20.8616 18.154 21.015 18.1992 21.1459 18.2852C21.3211 18.4006 21.4434 18.5808 21.486 18.7863C21.5286 18.9918 21.4881 19.2057 21.3732 19.3814C21.2873 19.5123 21.1645 19.6147 21.0204 19.6758C20.8762 19.7369 20.7172 19.7539 20.5634 19.7246C20.4095 19.6953 20.2679 19.621 20.1563 19.5112C20.0447 19.4014 19.9681 19.261 19.9363 19.1077C19.9045 18.9544 19.9189 18.7951 19.9777 18.6499C20.0364 18.5048 20.1369 18.3804 20.2663 18.2923C20.3958 18.2043 20.5485 18.1566 20.705 18.1553ZM23.7217 16.2628C23.7292 16.13 23.6971 15.998 23.6296 15.8835C23.5621 15.7689 23.4621 15.677 23.3424 15.6192C23.2226 15.5614 23.0884 15.5405 22.9567 15.559C22.8251 15.5775 22.7018 15.6346 22.6026 15.7231C22.5034 15.8117 22.4326 15.9276 22.3993 16.0563C22.366 16.1851 22.3716 16.3208 22.4153 16.4463C22.4591 16.5719 22.5392 16.6816 22.6453 16.7617C22.7514 16.8418 22.879 16.8886 23.0117 16.8962C23.1898 16.9063 23.3647 16.8452 23.4978 16.7264C23.6309 16.6077 23.7114 16.4409 23.7217 16.2628ZM25.3441 15.8431C25.4184 15.7994 25.5039 15.7788 25.5899 15.7837C25.7052 15.7906 25.813 15.8428 25.8898 15.929C25.9666 16.0152 26.0061 16.1283 25.9997 16.2435C25.9948 16.3296 25.9644 16.4122 25.9125 16.4809C25.8606 16.5497 25.7895 16.6015 25.7082 16.6298C25.6268 16.6582 25.5389 16.6618 25.4555 16.6401C25.3721 16.6185 25.297 16.5726 25.2397 16.5083C25.1824 16.444 25.1455 16.3642 25.1335 16.2788C25.1216 16.1935 25.1352 16.1066 25.1727 16.029C25.2102 15.9515 25.2699 15.8868 25.3441 15.8431ZM23.8366 20.1022C23.7449 20.0422 23.6376 20.0106 23.528 20.0116C23.4185 20.0126 23.3117 20.0461 23.2211 20.1078C23.1306 20.1694 23.0604 20.2566 23.0194 20.3582C22.9783 20.4597 22.9683 20.5712 22.9907 20.6785C23.013 20.7857 23.0666 20.8839 23.1447 20.9607C23.2229 21.0375 23.322 21.0894 23.4296 21.1099C23.5373 21.1303 23.6485 21.1184 23.7494 21.0756C23.8502 21.0328 23.9361 20.9611 23.9962 20.8695C24.0362 20.8087 24.0637 20.7405 24.0773 20.669C24.0909 20.5975 24.0903 20.524 24.0754 20.4528C24.0606 20.3815 24.0319 20.3139 23.9909 20.2537C23.9499 20.1936 23.8975 20.1421 23.8366 20.1022ZM11.234 24.0973C11.3201 24.0966 11.4045 24.1214 11.4765 24.1687C11.5244 24.2001 11.5656 24.2406 11.5977 24.2879C11.6299 24.3352 11.6524 24.3884 11.6641 24.4444C11.6757 24.5005 11.6761 24.5582 11.6654 24.6144C11.6547 24.6706 11.633 24.7242 11.6016 24.772C11.5543 24.844 11.4867 24.9003 11.4074 24.9339C11.3281 24.9675 11.2406 24.9768 11.156 24.9607C11.0714 24.9445 10.9935 24.9037 10.9321 24.8433C10.8707 24.7829 10.8286 24.7056 10.8111 24.6213C10.7936 24.5369 10.8015 24.4493 10.8339 24.3694C10.8662 24.2896 10.9214 24.2211 10.9926 24.1727C11.0639 24.1243 11.1479 24.098 11.234 24.0973ZM20.6 24.123C20.5231 24.1618 20.4594 24.2225 20.417 24.2975C20.3746 24.3725 20.3553 24.4584 20.3617 24.5443C20.3681 24.6302 20.3998 24.7123 20.4529 24.7802C20.5059 24.848 20.5779 24.8987 20.6598 24.9256C20.7416 24.9526 20.8296 24.9547 20.9126 24.9316C20.9956 24.9086 21.0699 24.8615 21.1261 24.7962C21.1823 24.7309 21.2179 24.6504 21.2284 24.5649C21.2389 24.4794 21.2237 24.3927 21.1849 24.3158C21.1593 24.2647 21.1237 24.2191 21.0804 24.1817C21.0371 24.1444 20.9868 24.1159 20.9325 24.098C20.8782 24.0801 20.8208 24.0731 20.7638 24.0774C20.7067 24.0817 20.6511 24.0972 20.6 24.123ZM15.7584 18.8803C15.7827 19.1789 15.7068 19.4771 15.5426 19.7277C15.4205 19.9151 15.2533 20.069 15.0564 20.1753C14.8596 20.2816 14.6392 20.3369 14.4155 20.3361C14.1159 20.3359 13.8249 20.2357 13.5886 20.0515C13.3524 19.8673 13.1843 19.6096 13.111 19.3191C13.0377 19.0286 13.0634 18.722 13.184 18.4477C13.3046 18.1735 13.5133 17.9473 13.7769 17.805C14.0405 17.6627 14.3441 17.6123 14.6396 17.662C14.935 17.7116 15.2055 17.8584 15.4081 18.0791C15.6108 18.2997 15.734 18.5817 15.7584 18.8803ZM12.8532 21.7944C12.7419 21.7216 12.6115 21.6834 12.4786 21.6847C12.3456 21.686 12.216 21.7266 12.1062 21.8015C11.9963 21.8765 11.9111 21.9823 11.8614 22.1056C11.8117 22.2289 11.7996 22.3642 11.8268 22.4944C11.8539 22.6245 11.919 22.7437 12.0139 22.8369C12.1088 22.9301 12.2291 22.993 12.3598 23.0178C12.4904 23.0425 12.6255 23.028 12.7479 22.976C12.8703 22.9241 12.9745 22.837 13.0474 22.7258C13.1451 22.5765 13.1795 22.3945 13.143 22.2199C13.1066 22.0452 13.0024 21.8922 12.8532 21.7944ZM15.6832 24.4474C15.7776 24.3919 15.8864 24.3655 15.9958 24.3717C16.0684 24.3759 16.1396 24.3943 16.2051 24.4259C16.2707 24.4575 16.3293 24.5018 16.3778 24.5561C16.4262 24.6104 16.4635 24.6737 16.4874 24.7425C16.5114 24.8112 16.5216 24.884 16.5174 24.9566C16.5111 25.066 16.4725 25.1711 16.4066 25.2585C16.3406 25.346 16.2501 25.4119 16.1467 25.448C16.0432 25.484 15.9314 25.4886 15.8254 25.4611C15.7193 25.4336 15.6238 25.3753 15.5509 25.2936C15.4779 25.2118 15.4309 25.1103 15.4157 25.0018C15.4005 24.8933 15.4178 24.7827 15.4654 24.684C15.513 24.5854 15.5888 24.503 15.6832 24.4474ZM15.9983 20.8859C15.8419 20.8764 15.6862 20.9135 15.5509 20.9926C15.4156 21.0717 15.3068 21.1891 15.2383 21.3301C15.1698 21.471 15.1446 21.6291 15.1661 21.7843C15.1875 21.9396 15.2545 22.0849 15.3586 22.2021C15.4627 22.3192 15.5993 22.4028 15.7509 22.4422C15.9026 22.4817 16.0625 22.4752 16.2105 22.4237C16.3585 22.3722 16.4879 22.2779 16.5823 22.1528C16.6766 22.0277 16.7318 21.8774 16.7406 21.721C16.7527 21.5118 16.6813 21.3065 16.5421 21.1499C16.403 20.9934 16.2074 20.8984 15.9983 20.8859ZM18.9519 22.011C19.0171 21.8949 19.1154 21.8007 19.2342 21.7404C19.3128 21.7003 19.3987 21.6761 19.4867 21.6691C19.5748 21.6622 19.6633 21.6727 19.7473 21.7001C19.8313 21.7274 19.9091 21.771 19.9762 21.8284C20.0433 21.8859 20.0984 21.956 20.1384 22.0347C20.1989 22.1534 20.2229 22.2873 20.2073 22.4196C20.1917 22.5519 20.1372 22.6766 20.0507 22.7779C19.9642 22.8792 19.8496 22.9526 19.7214 22.9887C19.5932 23.0248 19.4571 23.0221 19.3304 22.9809C19.2038 22.9397 19.0922 22.8618 19.0098 22.7571C18.9274 22.6524 18.8779 22.5257 18.8676 22.3928C18.8573 22.26 18.8866 22.1271 18.9519 22.011Z" fill="white"/>
</svg>
