<svg width="16" height="14" viewBox="0 0 16 14" fill="none" xmlns="http://www.w3.org/2000/svg">
<path d="M15.3987 0.903955L14.9703 0.535888C14.2591 -0.0752287 13.1905 -0.00710919 12.5626 0.689124L5.3957 8.63587L3.23233 6.77263C2.52194 6.16083 1.45314 6.22758 0.824537 6.92306L0.445738 7.34222C0.138548 7.68193 -0.0209512 8.13006 0.00221196 8.58781C0.0256035 9.0453 0.2297 9.4748 0.569938 9.78186L4.5355 13.4133C4.87884 13.7357 5.33897 13.9039 5.80928 13.8789C6.27959 13.854 6.7193 13.6379 7.02652 13.2809L15.582 3.34001C15.8809 2.99269 16.0296 2.54091 15.9951 2.0841C15.9607 1.62697 15.7462 1.20253 15.3987 0.903955Z" fill="#07C569"/>
</svg>
