<svg width="11" height="11" viewBox="0 0 11 11" fill="none" xmlns="http://www.w3.org/2000/svg">
<path d="M6.0234 5.31173L10.0006 1.33451C10.1999 1.13519 10.1999 0.812044 10.0006 0.612745C9.80131 0.413427 9.47814 0.413427 9.27885 0.612745L5.3016 4.58997L1.32437 0.612745C1.12506 0.413427 0.801912 0.413427 0.602613 0.612745C0.403315 0.812063 0.403296 1.13521 0.602613 1.33451L4.57984 5.31173L0.602613 9.28896C0.403296 9.48828 0.403296 9.81142 0.602613 10.0107C0.801931 10.21 1.12507 10.21 1.32437 10.0107L5.3016 6.03349L9.27881 10.0107C9.47813 10.21 9.80129 10.21 10.0006 10.0107C10.1999 9.8114 10.1999 9.48826 10.0006 9.28896L6.0234 5.31173Z" fill="#040D27" stroke="#040D27" stroke-width="0.3"/>
</svg>
