<svg width="32" height="32" viewBox="0 0 32 32" fill="none" xmlns="http://www.w3.org/2000/svg">
<circle cx="16" cy="16" r="16" fill="#42318C"/>
<path d="M22.0367 21.4068C22.4006 20.9687 22.7217 20.5088 23 20.0051L21.3731 19.1728C21.1376 19.567 20.8593 19.9393 20.5168 20.2679C20.1315 20.6621 19.6177 20.9249 19.0826 21.0125C18.1407 21.1439 17.4557 20.8373 16.4924 20.2022C15.4862 19.5451 14.3303 18.7786 12.682 18.9976C11.6972 19.129 10.7768 19.6546 9.9633 20.5745C9.59939 21.0125 9.27829 21.4725 9 21.9762L10.6269 22.8085C10.8624 22.4143 11.1407 22.0419 11.4832 21.7134C11.8685 21.3192 12.3823 21.0563 12.9174 20.9687C13.0459 20.9468 13.1957 20.9468 13.3242 20.9468C14.0734 20.9468 14.6728 21.2535 15.5076 21.7791C16.4495 22.4143 17.6483 23.1808 19.318 22.9618C20.3456 22.8304 21.2661 22.3047 22.0367 21.4068ZM22.0367 16.4351C22.4006 15.997 22.7217 15.5371 23 15.0333L21.3731 14.2011C21.1376 14.5953 20.8593 14.9676 20.5168 15.2962C20.1315 15.6904 19.6177 15.9532 19.0826 16.0408C18.1407 16.1722 17.4557 15.8656 16.4924 15.2305C15.4648 14.5734 14.3089 13.8068 12.682 14.0259C11.6972 14.1573 10.7768 14.6829 9.9633 15.6028C9.59939 16.0408 9.27829 16.5008 9 17.0045L10.6269 17.8368C10.8624 17.4425 11.1407 17.0702 11.4832 16.7417C11.8685 16.3474 12.3823 16.0846 12.9174 15.997C13.0459 15.9751 13.1957 15.9751 13.3242 15.9751C14.0734 15.9751 14.6728 16.2817 15.5076 16.8074C16.4495 17.4425 17.6483 18.2091 19.318 17.9901C20.3456 17.8368 21.2661 17.333 22.0367 16.4351ZM22.0367 11.4414C22.4006 11.0034 22.7217 10.5435 23 10.0397L21.3731 9.20745C21.1376 9.60168 20.8593 9.97402 20.5168 10.3025C20.1315 10.6968 19.6177 10.9596 19.0826 11.0472C18.1407 11.1786 17.4557 10.872 16.4924 10.2368C15.4862 9.57978 14.3303 8.83512 12.682 9.03224C11.6972 9.16365 10.7768 9.68929 9.9633 10.6092C9.59939 11.0472 9.27829 11.5071 9 12.0109L10.6269 12.8432C10.8624 12.4489 11.1407 12.0766 11.4832 11.7481C11.8685 11.3538 12.3823 11.091 12.9174 11.0034C13.0459 10.9815 13.1957 10.9815 13.3242 10.9815C14.0734 10.9815 14.6728 11.2881 15.5076 11.8138C16.4495 12.4489 17.6483 13.2155 19.318 12.9965C20.3456 12.8651 21.2661 12.3394 22.0367 11.4414Z" fill="white"/>
</svg>
