<svg width="1000" height="1000" viewBox="0 0 1000 1000" fill="none" xmlns="http://www.w3.org/2000/svg">
<circle cx="500" cy="500" r="500" fill="#0B8311"/>
<path d="M227 538.925C323.027 589.942 423.228 643.344 500.62 684.664L772 538.925C673.738 684.961 591.864 806.538 500.62 941.089C409.213 806.834 308.266 658.693 227 538.925ZM237.437 498.644L500.916 357.993L760.966 497.615L501.065 638.421L237.437 498.644ZM500.62 312.931L227 457.03L499.426 58L772 457.924L500.62 312.931Z" fill="white"/>
<path d="M500.62 684.664L772 538.925C673.737 684.961 500.62 941.089 500.62 941.089V684.664ZM500.916 357.993L760.966 497.615L501.065 638.421L500.916 357.993ZM500.62 312.941L499.426 58L772 457.924L500.62 312.941Z" fill="white"/>
<path d="M237.437 498.647L500.93 520.279L760.98 497.753L501.065 638.57L237.437 498.647Z" fill="white"/>
<path d="M500.916 520.279L760.966 497.753L501.065 638.57L500.916 520.279Z" fill="white"/>
</svg>
