<svg width="32" height="32" viewBox="0 0 32 32" fill="none" xmlns="http://www.w3.org/2000/svg">
<circle cx="16" cy="16" r="16" fill="#1F6AF8"/>
<g clip-path="url(#clip0)">
<path d="M15.1207 6.1945C15.3921 6.06686 15.6884 6.00067 15.9883 6.00067C16.2883 6.00067 16.5846 6.06686 16.856 6.1945L21.8842 8.83904C22.011 8.89573 22.1219 8.98268 22.2072 9.09225C22.2924 9.20182 22.3495 9.33065 22.3732 9.46741H22.3784V22.741C22.366 22.8899 22.3135 23.0326 22.2264 23.1541C22.1393 23.2756 22.021 23.3712 21.8839 23.4309L16.856 26.0734C16.5846 26.201 16.2883 26.2672 15.9883 26.2672C15.6884 26.2672 15.3921 26.201 15.1207 26.0734L10.0925 23.4289C9.95696 23.3684 9.84039 23.2723 9.75526 23.1508C9.67014 23.0293 9.61966 22.8869 9.60923 22.739C9.60923 22.7163 9.60923 22.697 9.60923 22.6815V9.46338C9.63025 9.32675 9.6856 9.19767 9.77012 9.08823C9.85465 8.97878 9.96557 8.89255 10.0925 8.83761L15.1207 6.1945ZM21.5864 16.8713L16.856 19.354C16.5846 19.4818 16.2883 19.5482 15.9883 19.5482C15.6883 19.5482 15.3921 19.4818 15.1207 19.354L10.4003 16.8767V22.7148L15.1207 25.1814C15.3553 25.323 15.6131 25.4219 15.8822 25.4735L15.9901 25.4801C16.2853 25.4512 16.5703 25.3567 16.8243 25.2036L21.5896 22.6924V16.8713H21.5864ZM8.79167 22.4524C8.76828 22.8208 8.82897 23.1897 8.96917 23.5312C9.08907 23.7496 9.26605 23.9314 9.48122 24.0572L9.49647 24.0673C9.55573 24.1067 9.62074 24.1483 9.69928 24.1969L9.79248 24.2544L10.0779 24.4269L9.66849 25.0987L9.34918 24.9061L9.29452 24.8733C9.2016 24.8158 9.12508 24.7678 9.05374 24.7212C8.29055 24.2078 8.00547 23.6499 8 22.4877V22.4524H8.7911H8.79167ZM15.5914 13.3115C15.5566 13.3236 15.5227 13.338 15.4898 13.3546L10.4628 15.9971L10.4475 16.0057H10.4432L10.4512 16.0109L10.463 16.017L15.491 18.6583C15.5237 18.6752 15.5576 18.6896 15.5925 18.7015L15.5914 13.3115ZM16.385 13.3115V18.7035C16.4199 18.6916 16.4539 18.6772 16.4866 18.6604L21.5148 16.019L21.5301 16.0103H21.5347L21.5266 16.0063L21.5148 15.9997L16.4863 13.3592C16.4536 13.3423 16.4196 13.3279 16.3848 13.3161L16.385 13.3115ZM21.5864 10.4082L17.0734 12.7777L21.5864 15.1468V10.4059V10.4082ZM10.4003 10.4137V15.1414L14.9001 12.7777L10.4003 10.4137ZM16.4863 6.89157C16.329 6.82387 16.1596 6.78895 15.9883 6.78895C15.8171 6.78895 15.6477 6.82387 15.4904 6.89157L10.4625 9.5318L10.4472 9.53985L10.4426 9.54243L10.4507 9.54703L10.4625 9.55249L15.4907 12.1939C15.6478 12.262 15.8173 12.2972 15.9886 12.2972C16.16 12.2972 16.3294 12.262 16.4866 12.1939L21.5148 9.55249L21.5301 9.54703L21.5347 9.54445L21.5266 9.53985L21.5148 9.53381L16.4863 6.89157ZM22.3289 7.18304L22.6482 7.37506L22.7058 7.4038C22.7981 7.46129 22.8746 7.50959 22.9463 7.55587C23.7103 8.06753 23.9948 8.62662 24.0009 9.7882V9.82356H23.2066C23.2299 9.45508 23.1693 9.0861 23.0291 8.74447C22.9091 8.52612 22.7319 8.34449 22.5165 8.21901L22.5012 8.20895C22.4437 8.169 22.3775 8.12789 22.2984 8.07931L22.2055 8.02613L21.9201 7.85366L22.3298 7.18189L22.3289 7.18304Z" fill="white"/>
</g>
<defs>
<clipPath id="clip0">
<rect width="16" height="20.2667" fill="white" transform="translate(8 6)"/>
</clipPath>
</defs>
</svg>
