<svg width="18" height="18" viewBox="0 0 18 18" fill="none" xmlns="http://www.w3.org/2000/svg">
<circle opacity="0.3" cx="9" cy="9" r="9" fill="#1F1F34"/>
<mask id="path-2-inside-1" fill="white">
<path fill-rule="evenodd" clip-rule="evenodd" d="M9 17C13.4183 17 17 13.4183 17 9C17 4.58172 13.4183 1 9 1C4.58172 1 1 4.58172 1 9C1 13.4183 4.58172 17 9 17ZM8.54237 5.20241C8.68802 5.06586 8.86979 5 9.07641 5C9.28206 5 9.46185 5.06538 9.60152 5.2041C9.74876 5.34306 9.81985 5.52395 9.81985 5.73271C9.81985 5.94752 9.74962 6.13468 9.60327 6.28103C9.46335 6.42095 9.28292 6.48688 9.07641 6.48688C8.86979 6.48688 8.68802 6.42102 8.54237 6.28447L8.53515 6.2777C8.39745 6.13082 8.33297 5.94462 8.33297 5.73271C8.33297 5.52619 8.3989 5.34576 8.53882 5.20585L8.54237 5.20241ZM7.66771 7.38207H9.68036V11.9776C9.68036 12.1012 9.68303 12.1962 9.68799 12.2642C9.69018 12.294 9.69268 12.3168 9.69521 12.3335C9.71244 12.3393 9.74 12.3459 9.78103 12.3511L10.5066 12.4303V13H7.66771V12.4303L8.39325 12.3511C8.43428 12.3459 8.46184 12.3393 8.47906 12.3335C8.4816 12.3168 8.4841 12.294 8.48628 12.2642C8.49125 12.1962 8.49392 12.1012 8.49392 11.9776V8.40449C8.49392 8.28084 8.49125 8.18583 8.48628 8.11791C8.4841 8.08811 8.4816 8.06532 8.47906 8.04863C8.46202 8.0428 8.43488 8.03629 8.39459 8.03113L7.66771 7.96505V7.38207Z"/>
</mask>
<path fill-rule="evenodd" clip-rule="evenodd" d="M9 17C13.4183 17 17 13.4183 17 9C17 4.58172 13.4183 1 9 1C4.58172 1 1 4.58172 1 9C1 13.4183 4.58172 17 9 17ZM8.54237 5.20241C8.68802 5.06586 8.86979 5 9.07641 5C9.28206 5 9.46185 5.06538 9.60152 5.2041C9.74876 5.34306 9.81985 5.52395 9.81985 5.73271C9.81985 5.94752 9.74962 6.13468 9.60327 6.28103C9.46335 6.42095 9.28292 6.48688 9.07641 6.48688C8.86979 6.48688 8.68802 6.42102 8.54237 6.28447L8.53515 6.2777C8.39745 6.13082 8.33297 5.94462 8.33297 5.73271C8.33297 5.52619 8.3989 5.34576 8.53882 5.20585L8.54237 5.20241ZM7.66771 7.38207H9.68036V11.9776C9.68036 12.1012 9.68303 12.1962 9.68799 12.2642C9.69018 12.294 9.69268 12.3168 9.69521 12.3335C9.71244 12.3393 9.74 12.3459 9.78103 12.3511L10.5066 12.4303V13H7.66771V12.4303L8.39325 12.3511C8.43428 12.3459 8.46184 12.3393 8.47906 12.3335C8.4816 12.3168 8.4841 12.294 8.48628 12.2642C8.49125 12.1962 8.49392 12.1012 8.49392 11.9776V8.40449C8.49392 8.28084 8.49125 8.18583 8.48628 8.11791C8.4841 8.08811 8.4816 8.06532 8.47906 8.04863C8.46202 8.0428 8.43488 8.03629 8.39459 8.03113L7.66771 7.96505V7.38207Z" fill="white"/>
<path d="M8.54237 5.20241L8.13195 4.76463L8.12502 4.77134L8.54237 5.20241ZM9.60152 5.2041L9.1787 5.62981L9.18414 5.6352L9.1897 5.64046L9.60152 5.2041ZM9.60327 6.28103L10.0275 6.70529L10.0275 6.70529L9.60327 6.28103ZM8.54237 6.28447L8.13199 6.72218L8.132 6.72219L8.54237 6.28447ZM8.53515 6.2777L8.09742 6.68806L8.11066 6.70218L8.12477 6.71541L8.53515 6.2777ZM8.53882 5.20585L8.12141 4.77472L8.11455 4.78158L8.53882 5.20585ZM9.68036 7.38207H10.2804V6.78207H9.68036V7.38207ZM7.66771 7.38207V6.78207H7.06771V7.38207H7.66771ZM9.68799 12.2642L10.2864 12.2204V12.2204L9.68799 12.2642ZM9.69521 12.3335L9.10203 12.4236L9.15672 12.7834L9.50111 12.9012L9.69521 12.3335ZM9.78103 12.3511L9.7058 12.9465L9.71596 12.9476L9.78103 12.3511ZM10.5066 12.4303H11.1066V11.8922L10.5716 11.8338L10.5066 12.4303ZM10.5066 13V13.6H11.1066V13H10.5066ZM7.66771 13H7.06771V13.6H7.66771V13ZM7.66771 12.4303L7.60264 11.8338L7.06771 11.8922V12.4303H7.66771ZM8.39325 12.3511L8.45833 12.9477L8.46846 12.9464L8.39325 12.3511ZM8.47906 12.3335L8.67317 12.9012L9.01756 12.7834L9.07225 12.4236L8.47906 12.3335ZM8.48628 12.2642L9.08468 12.308V12.3079L8.48628 12.2642ZM8.48628 8.11791L9.08468 8.07413V8.07413L8.48628 8.11791ZM8.47906 8.04863L9.07225 7.95846L9.01756 7.59865L8.67319 7.4809L8.47906 8.04863ZM8.39459 8.03113L8.47078 7.43599L8.45987 7.43459L8.44891 7.43359L8.39459 8.03113ZM7.66771 7.96505H7.06771V8.51298L7.61339 8.56258L7.66771 7.96505ZM16.4 9C16.4 13.0869 13.0869 16.4 9 16.4V17.6C13.7496 17.6 17.6 13.7496 17.6 9H16.4ZM9 1.6C13.0869 1.6 16.4 4.91309 16.4 9H17.6C17.6 4.25035 13.7496 0.4 9 0.4V1.6ZM1.6 9C1.6 4.91309 4.91309 1.6 9 1.6V0.4C4.25035 0.4 0.4 4.25035 0.4 9H1.6ZM9 16.4C4.91309 16.4 1.6 13.0869 1.6 9H0.4C0.4 13.7496 4.25035 17.6 9 17.6V16.4ZM9.07641 4.4C8.73319 4.4 8.39991 4.51353 8.132 4.76469L8.95273 5.64013C8.97614 5.61819 9.00638 5.6 9.07641 5.6V4.4ZM10.0243 4.77839C9.7569 4.51278 9.41743 4.4 9.07641 4.4V5.6C9.11545 5.6 9.13804 5.60611 9.14945 5.61047C9.15963 5.61436 9.1684 5.61958 9.1787 5.62981L10.0243 4.77839ZM10.4198 5.73271C10.4198 5.37648 10.293 5.03165 10.0133 4.76774L9.1897 5.64046C9.20221 5.65226 9.20718 5.66109 9.21034 5.66885C9.21393 5.67764 9.21985 5.69697 9.21985 5.73271H10.4198ZM10.0275 6.70529C10.2989 6.43396 10.4198 6.08811 10.4198 5.73271H9.21985C9.21985 5.80692 9.20037 5.8354 9.17901 5.85677L10.0275 6.70529ZM9.07641 7.08688C9.41898 7.08688 9.75977 6.97306 10.0275 6.70529L9.17901 5.85676C9.16857 5.86721 9.15974 5.87245 9.1496 5.87635C9.13823 5.88072 9.1156 5.88688 9.07641 5.88688V7.08688ZM8.132 6.72219C8.39991 6.97335 8.73319 7.08688 9.07641 7.08688V5.88688C9.00638 5.88688 8.97614 5.86869 8.95273 5.84675L8.132 6.72219ZM8.12477 6.71541L8.13199 6.72218L8.95274 5.84675L8.94552 5.83998L8.12477 6.71541ZM7.73297 5.73271C7.73297 6.07315 7.8402 6.41369 8.09742 6.68806L8.97287 5.86733C8.95471 5.84796 8.93297 5.81609 8.93297 5.73271H7.73297ZM8.11455 4.78158C7.84679 5.04935 7.73297 5.39014 7.73297 5.73271H8.93297C8.93297 5.69351 8.93913 5.67089 8.9435 5.65951C8.94739 5.64938 8.95264 5.64055 8.96308 5.63011L8.11455 4.78158ZM8.12502 4.77134L8.12147 4.77478L8.95617 5.63691L8.95972 5.63348L8.12502 4.77134ZM9.68036 6.78207H7.66771V7.98207H9.68036V6.78207ZM10.2804 11.9776V7.38207H9.08036V11.9776H10.2804ZM10.2864 12.2204C10.283 12.1736 10.2804 12.0952 10.2804 11.9776H9.08036C9.08036 12.1072 9.08308 12.2189 9.08959 12.308L10.2864 12.2204ZM10.2884 12.2433C10.2888 12.2457 10.2886 12.2451 10.2882 12.2407C10.2877 12.2365 10.2871 12.2299 10.2864 12.2204L9.08959 12.308C9.09248 12.3474 9.09641 12.3866 9.10203 12.4236L10.2884 12.2433ZM9.85624 11.7559C9.85027 11.7551 9.85011 11.7548 9.85475 11.7558C9.85888 11.7567 9.87118 11.7595 9.88932 11.7657L9.50111 12.9012C9.56862 12.9243 9.63876 12.9379 9.70581 12.9464L9.85624 11.7559ZM10.5716 11.8338L9.84609 11.7547L9.71596 12.9476L10.4415 13.0267L10.5716 11.8338ZM11.1066 13V12.4303H9.90657V13H11.1066ZM7.66771 13.6H10.5066V12.4H7.66771V13.6ZM7.06771 12.4303V13H8.26771V12.4303H7.06771ZM8.32818 11.7547L7.60264 11.8338L7.73278 13.0267L8.45832 12.9476L8.32818 11.7547ZM8.28496 11.7657C8.3031 11.7595 8.3154 11.7567 8.31952 11.7558C8.32417 11.7548 8.32401 11.7551 8.31804 11.7559L8.46846 12.9464C8.53552 12.9379 8.60566 12.9243 8.67317 12.9012L8.28496 11.7657ZM7.88788 12.2204C7.88719 12.2299 7.88657 12.2365 7.88612 12.2408C7.88566 12.2451 7.8855 12.2457 7.88588 12.2433L9.07225 12.4236C9.07787 12.3866 9.0818 12.3474 9.08468 12.308L7.88788 12.2204ZM7.89392 11.9776C7.89392 12.0952 7.8913 12.1736 7.88788 12.2204L9.08468 12.3079C9.0912 12.2189 9.09392 12.1072 9.09392 11.9776H7.89392ZM7.89392 8.40449V11.9776H9.09392V8.40449H7.89392ZM7.88788 8.1617C7.8913 8.20844 7.89392 8.28685 7.89392 8.40449H9.09392C9.09392 8.27484 9.0912 8.16322 9.08468 8.07413L7.88788 8.1617ZM7.88588 8.13879C7.88551 8.13634 7.88566 8.13694 7.88612 8.14132C7.88657 8.14554 7.88719 8.15222 7.88788 8.1617L9.08468 8.07413C9.0818 8.0347 9.07787 7.99545 9.07225 7.95846L7.88588 8.13879ZM8.3184 8.62627C8.32409 8.627 8.32408 8.62722 8.31936 8.62621C8.31515 8.6253 8.30291 8.6225 8.28494 8.61636L8.67319 7.4809C8.60633 7.45804 8.53697 7.44446 8.47078 7.43599L8.3184 8.62627ZM7.61339 8.56258L8.34027 8.62866L8.44891 7.43359L7.72203 7.36751L7.61339 8.56258ZM7.06771 7.38207V7.96505H8.26771V7.38207H7.06771Z" fill="white" mask="url(#path-2-inside-1)"/>
</svg>
