<svg width="181" height="34" viewBox="0 0 181 34" fill="none" xmlns="http://www.w3.org/2000/svg">
<path fill-rule="evenodd" clip-rule="evenodd" d="M18.0741 23.0995L10.0548 29.295L15.7993 33.7209C16.2821 34.0929 16.9748 34.0929 17.4576 33.7209L31.5379 22.8929L24.9299 17.816L18.0741 23.0995ZM15.6153 23.4328L13.0549 21.4597L13.0513 21.4668L1.00003 12.32C1.00002 12.3221 1.00002 12.3243 1.00002 12.3264L1.00002 13.5044L0.999983 13.511L0.999982 21.6735C0.999982 22.0868 1.18891 22.4587 1.50379 22.7067L9.01316 28.4924L15.6153 23.4328ZM1.63026 11.1958L8.22504 16.2625L15.7993 10.4253C15.8664 10.3736 15.9375 10.3291 16.0116 10.2918L23.2572 4.73897L17.4577 0.27899C16.9749 -0.0929731 16.2821 -0.0929732 15.7993 0.27899L1.63026 11.1958ZM24.312 5.55014L17.7035 10.6147L25.9888 16.9999L25.9832 17.0043L32.2506 21.8194C32.2548 21.7778 32.2569 21.736 32.2569 21.6942L32.2569 20.4958L32.257 20.4889L32.257 12.3057C32.257 11.9131 32.068 11.5205 31.7532 11.2725L24.312 5.55014Z" fill="white"/>
<path d="M79.4401 23.3257C79.0128 23.7529 78.4946 23.9711 77.8855 23.9711C77.2764 23.9711 76.7674 23.7529 76.331 23.3257C75.9037 22.8984 75.6855 22.3802 75.6855 21.7711C75.6855 21.162 75.9037 20.653 76.331 20.2166C76.7583 19.7893 77.2764 19.5711 77.8855 19.5711C78.4946 19.5711 79.0037 19.7893 79.4401 20.2166C79.8673 20.6439 80.0855 21.162 80.0855 21.7711C80.0855 22.3802 79.8764 22.8984 79.4401 23.3257Z" fill="#040D27"/>
<path d="M90.3364 10.2277C91.7383 10.2277 92.8796 10.7162 93.7872 11.6932C94.7038 12.6702 95.1711 14.023 95.1711 15.7516V23.6711C95.1711 23.8308 95.0543 23.9529 94.9015 23.9529H92.1427C91.9899 23.9529 91.8731 23.8308 91.8731 23.6711V16.1931C91.8731 15.3007 91.6395 14.6243 91.1812 14.1639C90.7229 13.6848 90.1118 13.4406 89.339 13.4406C88.4853 13.4406 86.5262 13.4406 86.5262 13.4406C86.5262 13.4406 86.5262 15.6577 86.5262 16.7568V23.6898C86.5262 23.8495 86.4094 23.9717 86.2567 23.9717H83.4979C83.3451 23.9717 83.2283 23.8495 83.2283 23.6898V10.425C83.2283 10.2653 83.3451 10.1432 83.4979 10.1432H86.5262C87.9641 10.1432 88.6021 10.2277 90.3364 10.2277Z" fill="#040D27"/>
<path d="M101.041 18.4568C101.502 20.0956 102.762 20.915 104.813 20.915C106.036 20.915 106.986 20.5376 107.663 19.7826C107.748 19.6813 107.898 19.6537 108.011 19.7182L110.316 21.0163C110.467 21.0992 110.504 21.3017 110.401 21.4306C109.084 23.1247 107.202 23.9717 104.756 23.9717C102.546 23.9717 100.768 23.318 99.4319 22.0106C98.0961 20.7033 97.4282 19.0553 97.4282 17.0574C97.4282 15.0872 98.0867 13.4392 99.4037 12.1318C100.721 10.806 102.414 10.1432 104.484 10.1432C106.45 10.1432 108.058 10.806 109.328 12.1318C110.617 13.4576 111.257 15.0964 111.257 17.0574C111.257 17.4257 111.229 17.8032 111.163 18.2083C111.144 18.3464 111.022 18.4476 110.88 18.4476H101.041V18.4568ZM100.994 15.8329H107.814C107.616 14.9399 107.212 14.277 106.581 13.8443C105.979 13.4115 105.283 13.1906 104.493 13.1906C103.562 13.1906 102.8 13.43 102.188 13.8995C101.586 14.3506 101.182 14.9951 100.994 15.8329Z" fill="#040D27"/>
<path d="M119.526 13.7704H116.871V19.3526C116.871 19.8147 116.981 20.1541 117.209 20.371C117.437 20.5879 117.765 20.7105 118.194 20.7482C118.559 20.767 118.997 20.7576 119.508 20.7388C119.663 20.7293 119.8 20.8613 119.8 21.0216V23.6053C119.8 23.7467 119.69 23.8787 119.544 23.8882C117.373 24.1145 115.831 23.8787 114.919 23.1904C113.988 22.4738 113.514 21.2008 113.514 19.3526V13.7704V10.4418V7.28297C113.514 7.12267 113.633 7.00009 113.788 7.00009H116.588C116.744 7.00009 116.862 7.12267 116.862 7.28297V10.4418H119.517C119.672 10.4418 119.791 10.5644 119.791 10.7247V13.4875C119.8 13.6384 119.672 13.7704 119.526 13.7704Z" fill="#040D27"/>
<path d="M137.616 10.1432H140.633C140.818 10.1432 140.957 10.3377 140.901 10.5224L136.895 23.7675C136.858 23.8841 136.747 23.9717 136.626 23.9717H133.795C133.674 23.9717 133.563 23.8841 133.526 23.7675L131.167 15.589L128.807 23.7675C128.77 23.8939 128.668 23.9717 128.539 23.9717H125.707C125.587 23.9717 125.476 23.8939 125.439 23.7675L121.441 10.5224C121.386 10.3377 121.515 10.1432 121.709 10.1432H124.726C124.846 10.1432 124.957 10.2307 124.994 10.3571L127.178 18.6328L129.51 10.3474C129.547 10.221 129.649 10.1432 129.779 10.1432H132.573C132.693 10.1432 132.804 10.2307 132.841 10.3474L135.183 18.662L137.366 10.3571C137.385 10.2307 137.496 10.1432 137.616 10.1432Z" fill="#040D27"/>
<path d="M153.73 21.983C152.389 23.3088 150.753 23.9717 148.814 23.9717C146.885 23.9717 145.24 23.3088 143.899 21.983C142.575 20.6388 141.914 19 141.914 17.0574C141.914 15.124 142.575 13.4852 143.899 12.1594C145.24 10.8152 146.876 10.1432 148.814 10.1432C150.753 10.1432 152.389 10.8152 153.73 12.1594C155.072 13.4852 155.742 15.1148 155.742 17.0574C155.742 19 155.072 20.6388 153.73 21.983ZM146.278 19.6537C146.958 20.335 147.804 20.6757 148.814 20.6757C149.825 20.6757 150.67 20.335 151.35 19.6537C152.03 18.9724 152.37 18.107 152.37 17.0574C152.37 16.0078 152.03 15.1424 151.35 14.4611C150.67 13.7798 149.825 13.4392 148.814 13.4392C147.804 13.4392 146.958 13.7798 146.278 14.4611C145.617 15.1424 145.286 16.0078 145.286 17.0574C145.286 18.107 145.617 18.9724 146.278 19.6537Z" fill="#040D27"/>
<path d="M164.914 10.4269V13.3307C164.914 13.4915 164.801 13.6145 164.654 13.6145H162.318C161.686 13.6145 161.175 14.1725 161.175 14.863V17.5398V23.6879C161.175 23.8487 161.063 23.9717 160.916 23.9717H158.259C158.112 23.9717 158 23.8487 158 23.6879V13.378C158 11.5903 159.324 10.1432 160.959 10.1432H164.654C164.793 10.1432 164.914 10.2756 164.914 10.4269Z" fill="#040D27"/>
<path d="M170.942 17.8397V23.6867C170.942 23.8481 170.831 23.9714 170.685 23.9714H168.056C167.911 23.9714 167.799 23.8481 167.799 23.6867V7.28485C167.799 7.12349 167.911 7.00009 168.056 7.00009H170.685C170.831 7.00009 170.942 7.12349 170.942 7.28485V17.8397Z" fill="#040D27"/>
<path d="M175.913 16.692C175.757 16.9064 175.757 17.2085 175.913 17.4229L180.312 23.4942C180.451 23.6891 180.33 23.9717 180.095 23.9717H176.694C176.529 23.9717 176.373 23.884 176.269 23.7475L171.688 17.4229C171.532 17.2085 171.532 16.9064 171.688 16.692L176.269 10.3673C176.373 10.2211 176.529 10.1432 176.694 10.1432H180.095C180.321 10.1432 180.451 10.4258 180.312 10.6207L175.913 16.692Z" fill="#040D27"/>
<path d="M73.1373 15.6915C73.0712 13.9933 72.6558 12.6643 71.6834 11.7044C70.7299 10.7445 69.5215 10.3661 68.0581 10.2646C67.3784 10.2185 65.9434 10.1539 64.4895 10.1446C62.6863 10.1354 60.8831 10.1723 60.8831 10.1723C60.7226 10.1723 60.5999 10.2923 60.5999 10.4492V12.5535V21.626V23.7303V29.0002H64.0646V26.4345V20.7769C64.0646 20.7769 64.0646 20.26 64.0646 19.6047C64.0646 18.9125 64.0646 18.0727 64.0646 17.5189V16.6606V13.4026C64.0646 13.4026 66.1228 13.4026 67.0196 13.4026C67.8221 13.4026 68.4735 13.6426 68.955 14.1133C69.4365 14.5655 69.682 15.23 69.682 16.1068V16.2452V18.0727C69.682 18.9494 69.4365 19.614 68.955 20.0662C68.4735 20.5369 67.8315 20.7769 67.0196 20.7769C66.4154 20.7769 64.6122 20.7769 64.6122 20.7769V23.9241C65.7262 23.9333 66.4815 23.9887 68.0676 23.9241C69.5403 23.8687 70.7488 23.4441 71.6929 22.4843C72.5708 21.6075 73.024 20.4169 73.109 18.9402C73.1184 18.9125 73.1467 18.8941 73.1467 18.8572C73.1373 18.8572 73.2128 17.5097 73.1373 15.6915Z" fill="#040D27"/>
<path d="M46.78 16.6905C46.9458 16.9041 46.9458 17.2106 46.78 17.4242L42.0623 23.498C41.9149 23.693 42.0439 23.9716 42.2927 23.9716H45.9415C46.1166 23.9716 46.2916 23.8881 46.4022 23.7487L51.3041 17.4242C51.47 17.2106 51.47 16.9041 51.3041 16.6905L46.393 10.366C46.2824 10.2267 46.1166 10.1431 45.9323 10.1431H42.2927C42.0531 10.1431 41.9149 10.431 42.0623 10.6168L46.78 16.6905Z" fill="#040D27"/>
<path d="M52.9343 16.6905C52.7685 16.9041 52.7685 17.2106 52.9343 17.4242L57.652 23.498C57.7994 23.693 57.6704 23.9716 57.4216 23.9716H53.7728C53.5977 23.9716 53.4227 23.8881 53.3121 23.7487L48.4102 17.4242C48.2443 17.2106 48.2443 16.9041 48.4102 16.6905L53.3213 10.366C53.4319 10.2267 53.5977 10.1431 53.782 10.1431H57.4216C57.6612 10.1431 57.7994 10.431 57.652 10.6168L52.9343 16.6905Z" fill="#040D27"/>
<path fill-rule="evenodd" clip-rule="evenodd" d="M17.8171 23.0997L9.79787 29.2951L15.5423 33.721C16.0251 34.093 16.7179 34.093 17.2007 33.721L31.2809 22.893L24.6729 17.8162L17.8171 23.0997ZM15.3583 23.433L12.798 21.4598L12.7943 21.4669L0.743072 12.3201C0.743063 12.3223 0.743057 12.3244 0.743057 12.3265L0.743057 13.5046L0.743025 13.5111L0.743024 21.6736C0.743024 22.0869 0.931951 22.4589 1.24683 22.7068L8.75621 28.4926L15.3583 23.433ZM1.3733 11.1959L7.96808 16.2626L15.5423 10.4254C15.6094 10.3737 15.6806 10.3292 15.7546 10.2919L23.0003 4.7391L17.2007 0.279112C16.7179 -0.0928511 16.0252 -0.0928511 15.5423 0.279112L1.3733 11.1959ZM24.0551 5.55027L17.4465 10.6148L25.7319 17.0001L25.7262 17.0044L31.9936 21.8196C31.9978 21.7779 32 21.7361 32 21.6943L32 20.4959L32 20.489L32 12.3059C32 11.9132 31.8111 11.5206 31.4962 11.2726L24.0551 5.55027Z" fill="#040D27"/>
</svg>
