<svg width="32" height="32" viewBox="0 0 32 32" fill="none" xmlns="http://www.w3.org/2000/svg">
<circle cx="16" cy="16" r="16" fill="#8247E5"/>
<path d="M21.0922 12.7371C20.7232 12.5196 20.2435 12.5196 19.8377 12.7371L16.9594 14.4043L15.0037 15.4916L12.1255 17.1587C11.7565 17.3762 11.2767 17.3762 10.8708 17.1587L8.58303 15.8539C8.21402 15.6365 7.95572 15.2379 7.95572 14.8029V12.2297C7.95572 11.7948 8.17712 11.3961 8.58303 11.1786L10.8339 9.91015C11.2029 9.69269 11.6827 9.69269 12.0886 9.91015L14.3395 11.1786C14.7085 11.3961 14.9668 11.7948 14.9668 12.2297V13.8969L16.9225 12.7733V11.1062C16.9225 10.6712 16.7011 10.2726 16.2952 10.0551L12.1255 7.66309C11.7565 7.44564 11.2767 7.44564 10.8708 7.66309L6.62731 10.0551C6.2214 10.2726 6 10.6712 6 11.1062V15.9265C6 16.3614 6.2214 16.7601 6.62731 16.9775L10.8708 19.3696C11.2398 19.587 11.7196 19.587 12.1255 19.3696L15.0037 17.7386L16.9594 16.6151L19.8377 14.9842C20.2066 14.7667 20.6863 14.7667 21.0922 14.9842L23.3432 16.2527C23.7121 16.4701 23.9704 16.8688 23.9704 17.3037V19.8769C23.9704 20.3119 23.7491 20.7105 23.3432 20.928L21.0922 22.2327C20.7232 22.4502 20.2435 22.4502 19.8377 22.2327L17.5867 20.9642C17.2177 20.7468 16.9594 20.3481 16.9594 19.9132V18.246L15.0037 19.3696V21.0367C15.0037 21.4716 15.2251 21.8703 15.631 22.0877L19.8745 24.4798C20.2435 24.6972 20.7232 24.6972 21.1291 24.4798L25.3727 22.0877C25.7417 21.8703 26 21.4716 26 21.0367V16.2164C26 15.7815 25.7786 15.3829 25.3727 15.1654L21.0922 12.7371Z" fill="white"/>
</svg>
