<svg width="32" height="32" viewBox="0 0 32 32" fill="none" xmlns="http://www.w3.org/2000/svg">
<circle cx="16" cy="16" r="16" fill="url(#paint0_linear)"/>
<g clip-path="url(#clip0)">
<path d="M9.76029 19.9222C9.86288 19.8221 10.0039 19.7637 10.1535 19.7637H23.7211C23.969 19.7637 24.0929 20.0556 23.9177 20.2266L21.2375 22.8416C21.1349 22.9417 20.9939 23.0001 20.8443 23.0001H7.27676C7.02883 23.0001 6.90487 22.7082 7.08013 22.5372L9.76029 19.9222Z" fill="white"/>
<path d="M9.76029 10.1585C9.86715 10.0584 10.0082 10 10.1535 10H23.7211C23.969 10 24.093 10.2919 23.9177 10.4629L21.2375 13.078C21.1349 13.1781 20.9939 13.2364 20.8443 13.2364H7.27676C7.02883 13.2364 6.90487 12.9445 7.08013 12.7735L9.76029 10.1585Z" fill="white"/>
<path d="M21.2375 15.0091C21.1349 14.909 20.9939 14.8506 20.8443 14.8506H7.27676C7.02883 14.8506 6.90487 15.1425 7.08013 15.3135L9.76029 17.9285C9.86288 18.0286 10.0039 18.087 10.1535 18.087H23.7211C23.969 18.087 24.0929 17.7951 23.9177 17.6241L21.2375 15.0091Z" fill="white"/>
</g>
<defs>
<linearGradient id="paint0_linear" x1="26.5" y1="0.5" x2="16" y2="32" gradientUnits="userSpaceOnUse">
<stop offset="0.0218611" stop-color="#00FFA3"/>
<stop offset="1" stop-color="#D724FD"/>
</linearGradient>
<clipPath id="clip0">
<rect width="17" height="13" fill="white" transform="translate(7 10)"/>
</clipPath>
</defs>
</svg>
