<svg width="36" height="36" viewBox="0 0 36 36" fill="none" xmlns="http://www.w3.org/2000/svg">
<circle cx="18" cy="18" r="18" fill="url(#paint0_linear)"/>
<path fill-rule="evenodd" clip-rule="evenodd" d="M19.3125 21.549L13.7954 25.8114L17.4443 28.6228C17.7511 28.8591 18.1912 28.8591 18.4979 28.6228L27.4427 21.744L23.2446 18.5187L19.3125 21.549ZM17.328 22.0871L15.7011 20.8334L15.6985 20.8383L8.04244 15.0274C8.04243 15.0286 8.04243 15.0298 8.04243 15.031L8.04243 15.7732L8.04231 15.7834L8.04231 20.969C8.04231 21.2316 8.16233 21.4679 8.36238 21.6254L13.1336 25.3015L17.328 22.0871ZM8.44251 14.313L12.6322 17.5319L17.4444 13.8232C17.4874 13.7901 17.533 13.7617 17.5804 13.7378L22.1827 10.2109L18.498 7.37727C18.1913 7.14097 17.7512 7.14097 17.4445 7.37727L8.44251 14.313ZM22.8528 10.7262L18.6544 13.9437L23.9177 18L23.9138 18.0029L27.8958 21.0623C27.8985 21.0356 27.8999 21.0089 27.8999 20.9821L27.8999 20.2274L27.9 20.2167L27.9 15.0179C27.9 14.7685 27.78 14.519 27.58 14.3615L22.8528 10.7262Z" fill="white"/>
<defs>
<linearGradient id="paint0_linear" x1="11.6757" y1="4.86486" x2="61.7838" y2="-22.3784" gradientUnits="userSpaceOnUse">
<stop stop-color="#2853EB"/>
</linearGradient>
</defs>
</svg>
