<svg width="24" height="24" viewBox="0 0 24 24" fill="none" xmlns="http://www.w3.org/2000/svg">
<path d="M20.6479 2.6742L13.1526 8.24105L14.5387 4.95669L20.6479 2.6742Z" fill="#E2761B"/>
<path fill-rule="evenodd" clip-rule="evenodd" d="M20.778 2.60341C20.8132 2.66824 20.7954 2.74913 20.7362 2.79313L13.2409 8.35999C13.1873 8.39982 13.1136 8.39883 13.0611 8.35758C13.0085 8.31632 12.9901 8.245 13.0161 8.18345L14.4021 4.89909C14.418 4.86154 14.4486 4.83217 14.4868 4.81791L20.596 2.53542C20.6651 2.5096 20.7427 2.53858 20.778 2.60341ZM14.6503 5.07312L13.5002 7.79832L19.7194 3.17923L14.6503 5.07312Z" fill="#E2761B"/>
<path d="M3.3446 2.6742L10.7796 8.29379L9.46137 4.95669L3.3446 2.6742Z" fill="#E4761B"/>
<path fill-rule="evenodd" clip-rule="evenodd" d="M3.21471 2.60289C3.25012 2.53842 3.32746 2.50969 3.39636 2.5354L9.51313 4.81789C9.55245 4.83256 9.5837 4.86322 9.59912 4.90226L10.9174 8.23935C10.9418 8.30111 10.9221 8.37155 10.8692 8.41173C10.8164 8.45191 10.7432 8.45201 10.6903 8.41197L3.25524 2.79239C3.19657 2.74804 3.17931 2.66736 3.21471 2.60289ZM4.24307 3.1676L10.4479 7.85739L9.34777 5.07244L4.24307 3.1676Z" fill="#E4761B"/>
<path d="M17.9511 15.5781L15.9548 18.6365L20.226 19.8117L21.4539 15.6459L17.9511 15.5781Z" fill="#E4761B"/>
<path fill-rule="evenodd" clip-rule="evenodd" d="M17.827 15.4972C17.8549 15.4544 17.9028 15.429 17.9539 15.43L21.4567 15.4978C21.5029 15.4987 21.546 15.5211 21.5733 15.5584C21.6007 15.5957 21.609 15.6435 21.596 15.6878L20.3681 19.8536C20.3452 19.931 20.2646 19.9759 20.1867 19.9545L15.9155 18.7794C15.8699 18.7668 15.833 18.7332 15.8162 18.689C15.7995 18.6448 15.8049 18.5952 15.8307 18.5556L17.827 15.4972ZM18.0302 15.7279L16.1898 18.5475L20.125 19.6302L21.2568 15.7903L18.0302 15.7279Z" fill="#E4761B"/>
<path d="M2.55371 15.6459L3.77405 19.8117L8.04524 18.6365L6.049 15.5781L2.55371 15.6459Z" fill="#E4761B"/>
<path fill-rule="evenodd" clip-rule="evenodd" d="M6.04609 15.43C6.09714 15.429 6.14511 15.4544 6.17302 15.4972L8.16925 18.5556C8.19511 18.5952 8.20049 18.6448 8.18374 18.689C8.16698 18.7332 8.13011 18.7668 8.08449 18.7794L3.81331 19.9545C3.73534 19.976 3.65457 19.9309 3.63183 19.8533L2.41149 15.6876C2.39852 15.6433 2.40693 15.5955 2.43424 15.5583C2.46155 15.5211 2.50465 15.4987 2.55079 15.4978L6.04609 15.43ZM2.75033 15.7903L3.87521 19.6302L7.81019 18.5475L5.96976 15.7279L2.75033 15.7903Z" fill="#E4761B"/>
<path d="M7.8041 10.4105L6.61389 12.2109L10.8549 12.3993L10.7043 7.84181L7.8041 10.4105Z" fill="#E4761B"/>
<path fill-rule="evenodd" clip-rule="evenodd" d="M10.7629 7.70573C10.8157 7.72842 10.8505 7.77954 10.8524 7.83691L11.0031 12.3943C11.0045 12.4356 10.9885 12.4756 10.9592 12.5046C10.9298 12.5336 10.8897 12.5491 10.8485 12.5472L6.6074 12.3589C6.55409 12.3566 6.50618 12.3257 6.48196 12.2782C6.45774 12.2306 6.46096 12.1737 6.49038 12.1292L7.68059 10.3288C7.68773 10.318 7.69626 10.3082 7.70595 10.2996L10.6061 7.73091C10.6491 7.69284 10.7102 7.68303 10.7629 7.70573ZM7.917 10.5085L6.88174 12.0745L10.7017 12.2441L10.5667 8.16163L7.917 10.5085Z" fill="#E4761B"/>
<path d="M16.1884 10.4105L13.2505 7.78908L13.1526 12.3992L17.3861 12.2109L16.1884 10.4105Z" fill="#E4761B"/>
<path fill-rule="evenodd" clip-rule="evenodd" d="M13.1913 7.65323C13.2444 7.63016 13.306 7.64004 13.3491 7.67853L16.287 10.3C16.2964 10.3084 16.3047 10.318 16.3117 10.3285L17.5094 12.1289C17.539 12.1733 17.5423 12.2303 17.5182 12.278C17.494 12.3256 17.446 12.3565 17.3926 12.3589L13.1591 12.5472C13.1182 12.5491 13.0783 12.5338 13.049 12.5052C13.0197 12.4766 13.0036 12.4371 13.0044 12.3961L13.1024 7.78593C13.1036 7.72812 13.1383 7.67631 13.1913 7.65323ZM13.3918 8.1137L13.304 12.2442L17.1174 12.0746L16.0755 10.5084L13.3918 8.1137Z" fill="#E4761B"/>
<path d="M8.04517 18.6365L10.5913 17.3936L8.39168 15.6761L8.04517 18.6365Z" fill="#E4761B"/>
<path fill-rule="evenodd" clip-rule="evenodd" d="M8.33466 15.5394C8.38406 15.5188 8.44074 15.5264 8.48294 15.5593L10.6826 17.2768C10.7228 17.3083 10.744 17.3582 10.7387 17.409C10.7334 17.4598 10.7023 17.5043 10.6564 17.5267L8.11024 18.7697C8.06155 18.7934 8.00378 18.7887 7.95958 18.7574C7.91538 18.7261 7.8918 18.6731 7.8981 18.6193L8.24462 15.6589C8.25084 15.6057 8.28526 15.56 8.33466 15.5394ZM8.50827 15.955L8.22391 18.3845L10.3134 17.3645L8.50827 15.955Z" fill="#E4761B"/>
<path d="M13.4011 17.3936L15.9548 18.6365L15.6008 15.6761L13.4011 17.3936Z" fill="#E4761B"/>
<path fill-rule="evenodd" clip-rule="evenodd" d="M15.6576 15.5393C15.707 15.5599 15.7414 15.6054 15.7478 15.6585L16.1018 18.6189C16.1083 18.6728 16.0848 18.7258 16.0406 18.7572C15.9965 18.7887 15.9387 18.7935 15.8899 18.7697L13.3362 17.5268C13.2903 17.5044 13.2591 17.46 13.2537 17.4091C13.2484 17.3583 13.2696 17.3083 13.3099 17.2768L15.5095 15.5593C15.5517 15.5264 15.6083 15.5188 15.6576 15.5393ZM13.6794 17.3643L15.7754 18.3845L15.4848 15.9545L13.6794 17.3643Z" fill="#E4761B"/>
<path d="M15.9548 18.6365L13.4011 17.3936L13.6045 19.0584L13.5819 19.7589L15.9548 18.6365Z" fill="#D7C1B3"/>
<path fill-rule="evenodd" clip-rule="evenodd" d="M13.3152 17.273C13.3593 17.2415 13.4172 17.2366 13.466 17.2604L16.0197 18.5033C16.0709 18.5283 16.1033 18.5804 16.103 18.6374C16.1027 18.6943 16.0697 18.7461 16.0182 18.7704L13.6453 19.8929C13.5987 19.9149 13.5439 19.9111 13.5007 19.8828C13.4576 19.8545 13.4323 19.8058 13.4339 19.7542L13.4562 19.065L13.2541 17.4116C13.2476 17.3577 13.271 17.3045 13.3152 17.273ZM13.5813 17.646L13.7516 19.0404C13.7526 19.048 13.7529 19.0556 13.7527 19.0632L13.7379 19.5213L15.6124 18.6346L13.5813 17.646Z" fill="#D7C1B3"/>
<path d="M8.04529 18.6365L10.4182 19.7589L10.4031 19.0584L10.5914 17.3936L8.04529 18.6365Z" fill="#D7C1B3"/>
<path fill-rule="evenodd" clip-rule="evenodd" d="M10.6768 17.2726C10.721 17.3037 10.7447 17.3565 10.7386 17.4102L10.5514 19.0651L10.5662 19.7558C10.5673 19.8071 10.5418 19.8553 10.4987 19.8832C10.4556 19.9112 10.4012 19.9148 10.3548 19.8929L7.9819 18.7704C7.93041 18.7461 7.89745 18.6944 7.8971 18.6374C7.89675 18.5805 7.92907 18.5284 7.98025 18.5034L10.5264 17.2605C10.575 17.2367 10.6326 17.2414 10.6768 17.2726ZM8.38726 18.6344L10.2649 19.5226L10.2549 19.0616C10.2548 19.0549 10.2551 19.0483 10.2559 19.0417L10.4138 17.6451L8.38726 18.6344Z" fill="#D7C1B3"/>
<path d="M10.4557 14.5763L8.33142 13.951L9.83048 13.2655L10.4557 14.5763Z" fill="#233447"/>
<path fill-rule="evenodd" clip-rule="evenodd" d="M9.76895 13.1308C9.84251 13.0972 9.92945 13.1287 9.96428 13.2018L10.5895 14.5125C10.6147 14.5653 10.6065 14.6279 10.5685 14.6724C10.5306 14.7169 10.4701 14.7349 10.414 14.7184L8.28967 14.0932C8.23037 14.0757 8.18813 14.0233 8.18373 13.9616C8.17932 13.8999 8.21367 13.842 8.26989 13.8163L9.76895 13.1308ZM8.75371 13.9209L10.1792 14.3404L9.75961 13.4609L8.75371 13.9209Z" fill="#233447"/>
<path d="M13.5367 14.5763L14.162 13.2655L15.6686 13.951L13.5367 14.5763Z" fill="#233447"/>
<path fill-rule="evenodd" clip-rule="evenodd" d="M14.0282 13.2018C14.063 13.1288 14.1498 13.0972 14.2233 13.1307L15.7299 13.8162C15.7862 13.8418 15.8207 13.8998 15.8163 13.9615C15.8119 14.0233 15.7696 14.0758 15.7102 14.0932L13.5784 14.7184C13.5223 14.7349 13.4618 14.7168 13.4239 14.6723C13.386 14.6278 13.3778 14.5652 13.403 14.5125L14.0282 13.2018ZM14.233 13.4606L13.8132 14.3408L15.2447 13.921L14.233 13.4606Z" fill="#233447"/>
<path d="M8.04531 18.6365L8.40689 15.5782L6.04907 15.646L8.04531 18.6365Z" fill="#CD6116"/>
<path fill-rule="evenodd" clip-rule="evenodd" d="M8.51615 15.4782C8.54522 15.5099 8.55902 15.5528 8.55397 15.5956L8.19238 18.6539C8.1851 18.7156 8.14017 18.7661 8.07982 18.7806C8.01947 18.7951 7.9565 18.7704 7.92204 18.7188L5.92581 15.7282C5.89589 15.6834 5.89267 15.6259 5.9174 15.578C5.94213 15.5301 5.9909 15.4994 6.04477 15.4979L8.40258 15.4301C8.44563 15.4288 8.48708 15.4464 8.51615 15.4782ZM6.32086 15.7863L7.94533 18.22L8.23957 15.7312L6.32086 15.7863Z" fill="#CD6116"/>
<path d="M15.5933 15.5782L15.9548 18.6365L17.9511 15.646L15.5933 15.5782Z" fill="#CD6116"/>
<path fill-rule="evenodd" clip-rule="evenodd" d="M15.484 15.4782C15.5131 15.4464 15.5546 15.4288 15.5976 15.4301L17.9554 15.4979C18.0093 15.4994 18.0581 15.5301 18.0828 15.578C18.1075 15.6259 18.1043 15.6834 18.0744 15.7282L16.0781 18.7188C16.0437 18.7704 15.9807 18.7951 15.9204 18.7806C15.86 18.7661 15.8151 18.7156 15.8078 18.6539L15.4462 15.5956C15.4412 15.5528 15.455 15.5099 15.484 15.4782ZM15.7606 15.7312L16.0549 18.22L17.6793 15.7863L15.7606 15.7312Z" fill="#CD6116"/>
<path d="M17.3861 12.2109L13.1526 12.3992L13.5443 14.5763L14.1695 13.2655L15.6761 13.951L17.3861 12.2109Z" fill="#CD6116"/>
<path fill-rule="evenodd" clip-rule="evenodd" d="M17.5215 12.1506C17.5463 12.2062 17.5345 12.2713 17.4919 12.3148L15.7819 14.0549C15.7382 14.0993 15.6715 14.1117 15.6149 14.0859L14.2407 13.4606L13.6781 14.6401C13.6504 14.6981 13.5884 14.7317 13.5247 14.7231C13.4609 14.7145 13.41 14.6658 13.3986 14.6025L13.0069 12.4255C12.9993 12.3834 13.0103 12.3402 13.0369 12.3068C13.0636 12.2734 13.1034 12.2531 13.1461 12.2512L17.3796 12.0629C17.4404 12.0602 17.4967 12.095 17.5215 12.1506ZM13.3285 12.5397L13.6087 14.0973L14.0359 13.2018C14.0707 13.1288 14.1574 13.0972 14.231 13.1307L15.6432 13.7733L17.0166 12.3757L13.3285 12.5397Z" fill="#CD6116"/>
<path d="M8.33153 13.951L9.83812 13.2655L10.4558 14.5763L10.8551 12.3992L6.61401 12.2109L8.33153 13.951Z" fill="#CD6116"/>
<path fill-rule="evenodd" clip-rule="evenodd" d="M6.47859 12.1508C6.50334 12.0951 6.55966 12.0602 6.62054 12.0629L10.8616 12.2512C10.9044 12.2531 10.9442 12.2735 10.9709 12.307C10.9976 12.3405 11.0085 12.3839 11.0007 12.426L10.6015 14.603C10.5899 14.6663 10.5387 14.7149 10.4749 14.7232C10.4111 14.7315 10.3492 14.6976 10.3218 14.6394L9.76638 13.4609L8.39284 14.0859C8.33629 14.1116 8.26969 14.0993 8.22605 14.0551L6.50853 12.315C6.46572 12.2716 6.45384 12.2065 6.47859 12.1508ZM6.98475 12.3757L8.36427 13.7734L9.77672 13.1307C9.85049 13.0971 9.93754 13.1291 9.97209 13.2024L10.3932 14.096L10.6786 12.5397L6.98475 12.3757Z" fill="#CD6116"/>
<path d="M6.61401 12.2109L8.39179 15.6761L8.33153 13.951L6.61401 12.2109Z" fill="#E4751F"/>
<path fill-rule="evenodd" clip-rule="evenodd" d="M6.52713 12.0909C6.58637 12.048 6.66805 12.0548 6.71942 12.1069L8.43693 13.847C8.46304 13.8734 8.47826 13.9087 8.47955 13.9459L8.53982 15.6709C8.54224 15.7403 8.49621 15.802 8.42905 15.8195C8.3619 15.8369 8.29162 15.8054 8.25995 15.7437L6.48217 12.2786C6.44878 12.2135 6.46788 12.1338 6.52713 12.0909ZM7.18604 13.0014L8.22052 15.0178L8.18546 14.014L7.18604 13.0014Z" fill="#E4751F"/>
<path d="M15.6762 13.951L15.6008 15.6761L17.3861 12.2109L15.6762 13.951Z" fill="#E4751F"/>
<path fill-rule="evenodd" clip-rule="evenodd" d="M17.4729 12.0909C17.5323 12.1338 17.5513 12.2137 17.5178 12.2788L15.7325 15.7439C15.7006 15.8058 15.63 15.8371 15.5627 15.8193C15.4955 15.8014 15.4497 15.7391 15.4528 15.6696L15.5281 13.9446C15.5297 13.908 15.5448 13.8733 15.5704 13.8472L17.2804 12.1071C17.3318 12.0548 17.4136 12.048 17.4729 12.0909ZM15.8216 14.0143L15.7782 15.0082L16.8068 13.0118L15.8216 14.0143Z" fill="#E4751F"/>
<path d="M10.8551 12.3992L10.4558 14.5763L10.953 17.145L11.066 13.7627L10.8551 12.3992Z" fill="#E4751F"/>
<path fill-rule="evenodd" clip-rule="evenodd" d="M10.8571 12.2511C10.9294 12.2521 10.9904 12.3052 11.0014 12.3766L11.2123 13.7401C11.2138 13.7492 11.2143 13.7584 11.214 13.7677L11.101 17.15C11.0985 17.2253 11.0398 17.2868 10.9646 17.2927C10.8895 17.2986 10.8218 17.2472 10.8075 17.1732L10.3103 14.6044C10.3068 14.5863 10.3067 14.5677 10.31 14.5495L10.7093 12.3725C10.7223 12.3014 10.7848 12.2501 10.8571 12.2511ZM10.6065 14.5755L10.8487 15.827L10.9174 13.7716L10.8426 13.2882L10.6065 14.5755Z" fill="#E4751F"/>
<path d="M13.1526 12.3992L12.9492 13.7552L13.0396 17.145L13.5443 14.5763L13.1526 12.3992Z" fill="#E4751F"/>
<path fill-rule="evenodd" clip-rule="evenodd" d="M13.1504 12.2511C13.2229 12.2501 13.2855 12.3016 13.2984 12.373L13.6901 14.55C13.6933 14.5682 13.6932 14.5868 13.6896 14.6048L13.1849 17.1736C13.1704 17.2477 13.1024 17.2989 13.0272 17.2926C12.9519 17.2863 12.8935 17.2244 12.8915 17.149L12.8011 13.7591C12.8008 13.7505 12.8014 13.7418 12.8027 13.7332L13.0061 12.3773C13.0168 12.3056 13.0779 12.2522 13.1504 12.2511ZM13.1658 13.3095L13.0976 13.7643L13.152 15.8043L13.3935 14.5751L13.1658 13.3095Z" fill="#E4751F"/>
<path d="M13.5443 14.5763L13.0396 17.145L13.4011 17.3936L15.6008 15.6761L15.6761 13.951L13.5443 14.5763Z" fill="#F6851B"/>
<path fill-rule="evenodd" clip-rule="evenodd" d="M15.7674 13.8344C15.805 13.8639 15.8261 13.9097 15.8241 13.9575L15.7487 15.6825C15.7468 15.7259 15.7261 15.7662 15.6919 15.7929L13.4923 17.5104C13.4413 17.5502 13.3704 17.5523 13.3172 17.5157L12.9556 17.2671C12.9069 17.2336 12.8828 17.1744 12.8941 17.1164L13.3989 14.5477C13.4095 14.4935 13.4495 14.4497 13.5025 14.4341L15.6344 13.8089C15.6802 13.7954 15.7298 13.8049 15.7674 13.8344ZM13.6722 14.6931L13.2036 17.0781L13.3955 17.21L15.4557 15.6014L15.519 14.1515L13.6722 14.6931Z" fill="#F6851B"/>
<path d="M8.33142 13.951L8.39168 15.6761L10.5913 17.3936L10.9529 17.145L10.4557 14.5763L8.33142 13.951Z" fill="#F6851B"/>
<path fill-rule="evenodd" clip-rule="evenodd" d="M8.2407 13.834C8.27831 13.8048 8.32766 13.7955 8.37333 13.8089L10.4976 14.4342C10.5508 14.4498 10.5907 14.4937 10.6012 14.5481L11.0984 17.1169C11.1096 17.1747 11.0855 17.2337 11.0369 17.2671L10.6753 17.5157C10.622 17.5523 10.5512 17.5502 10.5002 17.5104L8.30059 15.7929C8.26606 15.7659 8.24523 15.725 8.2437 15.6813L8.18344 13.9562C8.18178 13.9086 8.20308 13.8632 8.2407 13.834ZM8.48673 14.1512L8.53741 15.6018L10.597 17.21L10.7891 17.0779L10.3275 14.6929L8.48673 14.1512Z" fill="#F6851B"/>
<path d="M13.5819 19.7589L13.6045 19.0584L13.4162 18.8927H10.5762L10.403 19.0584L10.418 19.7589L8.04517 18.6365L8.87379 19.3145L10.5536 20.4821H13.4388L15.1261 19.3145L15.9548 18.6365L13.5819 19.7589Z" fill="#C0AD9E"/>
<path fill-rule="evenodd" clip-rule="evenodd" d="M7.92003 18.5574C7.96003 18.4941 8.04094 18.4706 8.1086 18.5026L10.2649 19.5226L10.255 19.0616C10.2541 19.02 10.2706 18.98 10.3007 18.9513L10.4739 18.7856C10.5015 18.7592 10.5382 18.7445 10.5763 18.7445H13.4162C13.4523 18.7445 13.4871 18.7576 13.5141 18.7814L13.7024 18.9472C13.7357 18.9764 13.7541 19.0189 13.7526 19.0631L13.7379 19.5213L15.8915 18.5026C15.9592 18.4706 16.0401 18.4941 16.0801 18.5574C16.1201 18.6206 16.1066 18.7038 16.0487 18.7512L15.22 19.4292C15.217 19.4317 15.2138 19.4341 15.2105 19.4363L13.5231 20.6039C13.4984 20.6211 13.469 20.6303 13.4388 20.6303H10.5537C10.5235 20.6303 10.494 20.621 10.4692 20.6038L8.78932 19.4361C8.78614 19.4339 8.78306 19.4316 8.78006 19.4292L7.95144 18.7512C7.89351 18.7038 7.88003 18.6206 7.92003 18.5574ZM9.13639 19.3165L10.6002 20.334H13.3926L14.8612 19.3177L13.6453 19.8929C13.5987 19.9149 13.5439 19.9111 13.5007 19.8828C13.4575 19.8545 13.4322 19.8058 13.4339 19.7542L13.4542 19.1234L13.3603 19.0408H10.6358L10.5526 19.1204L10.5662 19.7558C10.5673 19.8071 10.5418 19.8553 10.4987 19.8832C10.4557 19.9112 10.4012 19.9148 10.3548 19.8929L9.13639 19.3165Z" fill="#C0AD9E"/>
<path d="M13.4012 17.3936L13.0396 17.145H10.953L10.5914 17.3936L10.4031 19.0584L10.5763 18.8927H13.4163L13.6046 19.0584L13.4012 17.3936Z" fill="#161616"/>
<path fill-rule="evenodd" clip-rule="evenodd" d="M10.869 17.0229C10.8937 17.006 10.923 16.9969 10.9529 16.9969H13.0396C13.0695 16.9969 13.0988 17.006 13.1235 17.0229L13.4851 17.2715C13.5201 17.2956 13.5431 17.3335 13.5482 17.3756L13.7516 19.0404C13.7591 19.1014 13.728 19.1607 13.6737 19.1894C13.6193 19.2181 13.5528 19.2102 13.5067 19.1696L13.3603 19.0408H10.6357L10.5054 19.1654C10.4604 19.2085 10.3931 19.2188 10.3372 19.1911C10.2814 19.1634 10.2488 19.1037 10.2558 19.0417L10.4442 17.3769C10.449 17.3343 10.4721 17.2958 10.5074 17.2715L10.869 17.0229ZM10.999 17.2932L10.731 17.4774L10.5876 18.7445H13.4162C13.4165 18.7445 13.4167 18.7445 13.4169 18.7445L13.2622 17.4778L12.9936 17.2932H10.999Z" fill="#161616"/>
<path d="M20.9642 8.60263L21.6045 5.52918L20.6478 2.67419L13.4011 8.05272L16.1883 10.4105L20.1281 11.5631L21.0019 10.5461L20.6252 10.2749L21.2279 9.72504L20.7608 9.36346L21.3635 8.90395L20.9642 8.60263Z" fill="#763D16"/>
<path fill-rule="evenodd" clip-rule="evenodd" d="M20.6922 2.53286C20.7375 2.54709 20.7732 2.58213 20.7883 2.62713L21.7449 5.48212C21.7533 5.50702 21.7549 5.53369 21.7495 5.5594L21.1283 8.54094L21.4527 8.7857C21.4897 8.81362 21.5114 8.85724 21.5116 8.90358C21.5117 8.94993 21.4901 8.99366 21.4532 9.02176L21.0039 9.36436L21.3185 9.6079C21.3531 9.63467 21.3741 9.67536 21.3758 9.71906C21.3776 9.76275 21.36 9.805 21.3277 9.83448L20.8599 10.2614L21.0884 10.4259C21.1221 10.4502 21.144 10.4874 21.1489 10.5286C21.1538 10.5698 21.1412 10.6112 21.1142 10.6427L20.2404 11.6596C20.2025 11.7038 20.1422 11.7216 20.0864 11.7053L16.1467 10.5527C16.1268 10.5469 16.1084 10.537 16.0926 10.5236L13.3054 8.16583C13.2709 8.13662 13.2516 8.09323 13.253 8.04801C13.2544 8.0028 13.2765 7.96072 13.3128 7.93377L20.5595 2.55523C20.5976 2.52695 20.6469 2.51864 20.6922 2.53286ZM13.6394 8.06031L16.26 10.2772L20.0779 11.3941L20.7843 10.572L20.5386 10.3952C20.5024 10.3691 20.4799 10.3281 20.4773 10.2835C20.4747 10.2389 20.4924 10.1956 20.5253 10.1655L20.9978 9.73435L20.6701 9.48061C20.6337 9.45243 20.6125 9.40894 20.6126 9.36292C20.6128 9.31689 20.6343 9.27356 20.6709 9.24565L21.1183 8.90456L20.8749 8.72088C20.8292 8.68635 20.8074 8.62853 20.8191 8.57242L21.4513 5.53823L20.5722 2.91481L13.6394 8.06031Z" fill="#763D16"/>
<path d="M2.39551 5.52918L3.03581 8.60263L2.62903 8.90395L3.23167 9.36346L2.77216 9.72504L3.37479 10.2749L2.99814 10.5461L3.86444 11.5631L7.80417 10.4105L10.5914 8.05272L3.34466 2.67419L2.39551 5.52918Z" fill="#763D16"/>
<path fill-rule="evenodd" clip-rule="evenodd" d="M3.30003 2.53292C3.34534 2.51862 3.39476 2.52692 3.43291 2.55523L10.6796 7.93377C10.7159 7.96073 10.738 8.0028 10.7394 8.04801C10.7408 8.09323 10.7215 8.13662 10.687 8.16583L7.89981 10.5236C7.88401 10.537 7.86558 10.5469 7.84572 10.5527L3.90599 11.7053C3.84994 11.7217 3.78948 11.7036 3.75161 11.6592L2.88532 10.6422C2.85848 10.6107 2.84605 10.5694 2.85103 10.5283C2.85601 10.4872 2.87795 10.4501 2.91154 10.4259L3.14007 10.2614L2.67225 9.83448C2.6401 9.80514 2.62247 9.76314 2.62406 9.71964C2.62565 9.67614 2.64629 9.63554 2.6805 9.60862L2.98971 9.36531L2.53916 9.02176C2.50212 8.99352 2.48052 8.9495 2.48084 8.90292C2.48116 8.85634 2.50337 8.81263 2.5408 8.78491L2.87139 8.54003L2.25043 5.5594C2.2451 5.53381 2.24663 5.50726 2.25488 5.48245L3.20403 2.62746C3.21902 2.58237 3.25472 2.54721 3.30003 2.53292ZM3.42064 2.91512L2.54864 5.53805L3.1808 8.57242C3.19259 8.629 3.17039 8.68728 3.12395 8.72168L2.87556 8.90567L3.32145 9.24566C3.35789 9.27344 3.37942 9.31652 3.37976 9.36233C3.38011 9.40815 3.35924 9.45155 3.32323 9.47989L3.00106 9.7334L3.47461 10.1655C3.50758 10.1956 3.52523 10.239 3.52265 10.2835C3.52007 10.3281 3.49753 10.3691 3.46131 10.3952L3.21512 10.5724L3.91492 11.3939L7.73241 10.2772L10.353 8.06032L3.42064 2.91512Z" fill="#763D16"/>
<path d="M20.128 11.5631L16.1883 10.4105L17.386 12.2109L15.6007 15.6761L17.951 15.6459H21.4538L20.128 11.5631Z" fill="#F6851B"/>
<path fill-rule="evenodd" clip-rule="evenodd" d="M16.069 10.3228C16.1059 10.2726 16.1702 10.2509 16.23 10.2684L20.1697 11.4209C20.2167 11.4347 20.2539 11.4707 20.269 11.5173L21.5948 15.6002C21.6094 15.6453 21.6016 15.6947 21.5737 15.733C21.5459 15.7714 21.5013 15.7941 21.4539 15.7941H17.952L15.6027 15.8242C15.5507 15.8249 15.5021 15.7982 15.4748 15.754C15.4474 15.7098 15.4453 15.6545 15.4691 15.6082L17.2145 12.2205L16.065 10.4926C16.0305 10.4408 16.0321 10.3729 16.069 10.3228ZM16.5368 10.6668L17.5094 12.1289C17.5392 12.1736 17.5424 12.231 17.5178 12.2788L15.8454 15.5248L17.9511 15.4978L21.25 15.4978L20.0114 11.6833L16.5368 10.6668Z" fill="#F6851B"/>
<path d="M7.80418 10.4105L3.86444 11.5631L2.55371 15.6459H6.049L8.39175 15.6761L6.61397 12.2109L7.80418 10.4105Z" fill="#F6851B"/>
<path fill-rule="evenodd" clip-rule="evenodd" d="M7.92335 10.3226C7.96027 10.3726 7.96201 10.4404 7.92772 10.4922L6.78528 12.2204L8.52352 15.6085C8.54724 15.6547 8.54501 15.71 8.51764 15.7541C8.49027 15.7983 8.44176 15.8249 8.38981 15.8242L6.04798 15.7941H2.55367C2.50634 15.7941 2.46185 15.7715 2.43397 15.7332C2.40608 15.695 2.39814 15.6457 2.41261 15.6007L3.72334 11.5178C3.73837 11.471 3.77563 11.4347 3.82281 11.4209L7.76254 10.2684C7.82222 10.2509 7.88644 10.2726 7.92335 10.3226ZM3.98143 11.6832L2.75682 15.4978H6.05087L8.14758 15.5248L6.48212 12.2785C6.45769 12.2309 6.46084 12.1739 6.49035 12.1292L7.45745 10.6663L3.98143 11.6832Z" fill="#F6851B"/>
<path d="M13.1526 12.3993L13.4012 8.05273L14.5462 4.95669H9.46143L10.5914 8.05273L10.855 12.3993L10.9454 13.7703L10.953 17.145H13.0396L13.0546 13.7703L13.1526 12.3993Z" fill="#F6851B"/>
<path fill-rule="evenodd" clip-rule="evenodd" d="M9.33999 4.87177C9.36771 4.83214 9.41302 4.80854 9.46138 4.80854H14.5461C14.5946 4.80854 14.64 4.83225 14.6677 4.87203C14.6954 4.9118 14.7019 4.96262 14.6851 5.00808L13.5478 8.08333L13.3003 12.4098L13.2027 13.7759L13.1877 17.1457C13.1873 17.2272 13.1211 17.2932 13.0395 17.2932H10.9529C10.8712 17.2932 10.8049 17.227 10.8048 17.1453L10.7972 13.7753L10.7072 12.409L10.7071 12.4082L10.4448 8.08325L9.32221 5.00748C9.30563 4.96205 9.31227 4.91139 9.33999 4.87177ZM9.67316 5.10484L10.7305 8.00194C10.7354 8.01539 10.7383 8.02948 10.7392 8.04376L11.0028 12.3895L11.0029 12.3903L11.0932 13.7605C11.0934 13.7636 11.0935 13.7668 11.0935 13.7699L11.1007 16.9969H12.8921L12.9065 13.7696C12.9065 13.7663 12.9066 13.763 12.9068 13.7597L13.0047 12.3897L13.2532 8.04428C13.2541 8.0296 13.2571 8.01513 13.2622 8.00135L14.3334 5.10484H9.67316Z" fill="#F6851B"/>
</svg>
