<svg width="17" height="24" viewBox="0 0 17 24" fill="none" xmlns="http://www.w3.org/2000/svg">
<g clip-path="url(#clip0)">
<path d="M8.36462 0C5.03557 0 2.34142 2.66593 2.34142 5.96011V8.19391C1.17239 8.40332 0 8.68255 0 9.04488V20.7025C0 20.7025 0 21.0249 0.366162 21.1778C1.69308 21.7097 6.91341 23.538 8.11268 23.9568C8.2672 24.0133 8.31087 24.0133 8.35119 24.0133C8.40829 24.0133 8.43517 24.0133 8.58969 23.9568C9.78896 23.538 15.0227 21.7097 16.3496 21.1778C16.6889 21.0382 16.7024 20.7158 16.7024 20.7158V9.04488C16.7024 8.68255 15.5468 8.39003 14.3744 8.19391V5.96011C14.3912 2.66593 11.6802 0 8.36462 0ZM8.36462 2.84875C10.3264 2.84875 11.5123 4.02216 11.5123 5.96344V7.90471C9.31194 7.7518 7.4341 7.7518 5.22033 7.90471V5.96344C5.22033 4.01884 6.40616 2.84875 8.36462 2.84875V2.84875ZM8.35119 10.7634C11.089 10.7634 13.3868 10.9729 13.3868 11.3485V18.6216C13.3868 18.7346 13.3733 18.7479 13.2725 18.7878C13.1751 18.831 8.60313 20.4632 8.60313 20.4632C8.60313 20.4632 8.41837 20.5197 8.36462 20.5197C8.30751 20.5197 8.12611 20.4499 8.12611 20.4499C8.12611 20.4499 3.55412 18.8177 3.45671 18.7745C3.35929 18.7313 3.34249 18.718 3.34249 18.6083V11.3352C3.31562 10.9596 5.61337 10.7634 8.35119 10.7634V10.7634Z" fill="black"/>
</g>
<defs>
<clipPath id="clip0">
<rect width="16.6957" height="24" fill="white"/>
</clipPath>
</defs>
</svg>
