<svg width="25" height="16" viewBox="0 0 25 16" fill="none" xmlns="http://www.w3.org/2000/svg">
<path d="M5.55428 3.69079C9.45933 -0.181082 15.7893 -0.181082 19.6994 3.69079L20.1692 4.15623C20.3662 4.35059 20.3662 4.66259 20.1692 4.85695L18.5627 6.45275C18.4667 6.54993 18.3051 6.54993 18.2091 6.45275L17.5624 5.81341C14.8395 3.11282 10.4192 3.11282 7.69625 5.81341L7.00415 6.49879C6.90816 6.59597 6.74651 6.59597 6.65052 6.49879L5.03899 4.90298C4.84197 4.70862 4.84197 4.39662 5.03899 4.20226L5.55428 3.69079ZM23.0234 6.98469L24.4531 8.40147C24.6501 8.59584 24.6501 8.90784 24.4531 9.1022L18.0019 15.5008C17.8049 15.6951 17.4917 15.6951 17.2947 15.5008L12.7127 10.9589C12.6622 10.9128 12.5864 10.9128 12.5359 10.9589L7.95894 15.5008C7.76192 15.6951 7.44871 15.6951 7.25169 15.5008L0.795471 9.10731C0.59845 8.91295 0.59845 8.60095 0.795471 8.40659L2.22513 6.9898C2.42215 6.79544 2.73537 6.79544 2.93239 6.9898L7.51438 11.5317C7.5649 11.5777 7.64068 11.5777 7.69119 11.5317L12.2681 6.9898C12.4652 6.79544 12.7784 6.79544 12.9754 6.9898L17.5574 11.5317C17.6079 11.5777 17.6837 11.5777 17.7342 11.5317L22.3162 6.9898C22.5082 6.79033 22.8264 6.79033 23.0234 6.98469Z" fill="#3A99FB"/>
</svg>
