<svg width="24" height="21" viewBox="0 0 24 21" fill="none" xmlns="http://www.w3.org/2000/svg">
<path d="M0 3.5C0 3.22386 0.223858 3 0.5 3H22C23.1046 3 24 3.89543 24 5V19C24 20.1046 23.1046 21 22 21H2C0.89543 21 0 20.1046 0 19V3.5Z" fill="#181B24"/>
<path fill-rule="evenodd" clip-rule="evenodd" d="M3.75 1.75C2.50736 1.75 1.5 2.75736 1.5 4V6H0V4C0 1.92893 1.67893 0.25 3.75 0.25H20.25C21.0784 0.25 21.75 0.921573 21.75 1.75H3.75Z" fill="#181B24"/>
<path fill-rule="evenodd" clip-rule="evenodd" d="M12.3415 14.0134L9.29465 16.3674L11.288 17.9032C11.4556 18.0323 11.696 18.0323 11.8636 17.9032L16.7502 14.1453L14.4568 12.3833L12.3415 14.0134ZM11.2245 14.3328L10.3358 13.6479L10.3344 13.6506L6.15185 10.476C6.15184 10.4767 6.15184 10.4774 6.15184 10.478L6.15184 10.8812L6.15171 10.8891L6.15171 13.722C6.15171 13.8654 6.21728 13.9945 6.32656 14.0806L8.93312 16.0888L11.2245 14.3328ZM6.37043 10.0857L8.65924 11.8442L11.2881 9.81822C11.3116 9.80013 11.3365 9.78457 11.3625 9.77156L13.8766 7.8448L11.8637 6.29681C11.6961 6.16772 11.4557 6.16772 11.2881 6.29681L6.37043 10.0857ZM14.2427 8.12633L11.9491 9.88405L14.8244 12.0999L14.8223 12.1016L16.9976 13.7728C16.9991 13.7583 16.9999 13.7437 16.9999 13.7291L16.9999 13.3192L17 13.3109L17 10.4709C17 10.3346 16.9344 10.1983 16.8251 10.1123L14.2427 8.12633Z" fill="white"/>
</svg>
