<svg width="24" height="21" viewBox="0 0 24 21" fill="none" xmlns="http://www.w3.org/2000/svg">
<path d="M0 3.25C0 2.97386 0.223858 2.75 0.5 2.75H22C23.1046 2.75 24 3.64543 24 4.75V18.75C24 19.8546 23.1046 20.75 22 20.75H2C0.89543 20.75 0 19.8546 0 18.75V3.25Z" fill="#181B24"/>
<path fill-rule="evenodd" clip-rule="evenodd" d="M3.75 1.5C2.50736 1.5 1.5 2.50736 1.5 3.75V5.75H0V3.75C0 1.67893 1.67893 0 3.75 0H20.25C21.0784 0 21.75 0.671573 21.75 1.5V1.5H3.75Z" fill="#181B24"/>
<path fill-rule="evenodd" clip-rule="evenodd" d="M15.2452 7.75H16.0028L16.5976 8.51959L16.216 9.00984L15.2452 7.75ZM16.7602 8.30853L16.9622 8.04631C17.052 7.92659 16.9734 7.75557 16.8219 7.75557H16.3337L16.7602 8.30853ZM13.0689 9.5172L12.6985 9.99606L14.079 11.7918C14.0818 11.7889 14.0832 11.7861 14.0846 11.7832C14.086 11.7804 14.0874 11.7775 14.0902 11.7747L14.4493 11.3129L13.0689 9.5172ZM15.4533 16.238H16.1491L11.9964 10.9136L11.6485 11.3583L15.4533 16.238ZM16.4802 16.2386L12.1592 10.6976L12.5352 10.2131L16.974 15.9707C17.0358 16.0904 16.9628 16.2386 16.8225 16.2386H16.4802ZM13.7709 8.60485L14.1413 8.126L15.5217 9.916L15.1514 10.3949L13.7709 8.60485ZM13.6073 8.81595L13.2313 9.3062L14.6118 11.0962L14.9878 10.6059L13.6073 8.81595ZM11.4862 11.5753L11.3347 11.7748C11.2337 11.906 11.2337 12.0941 11.3347 12.2252L14.3257 16.1073C14.3931 16.1928 14.4941 16.2441 14.6063 16.2441H15.1282L11.4862 11.5753ZM14.6066 7.75H14.9208L16.0544 9.22076L15.6896 9.69962L14.3092 7.90962L14.326 7.88682C14.3933 7.80131 14.5 7.75 14.6066 7.75Z" fill="url(#paint0_linear)"/>
<path d="M9.91117 11.7694C10.0122 11.9005 10.0122 12.0886 9.91117 12.2198L7.03797 15.948C6.94818 16.0677 7.02674 16.2387 7.17826 16.2387H9.4005C9.50713 16.2387 9.61375 16.1874 9.68109 16.1019L12.6665 12.2198C12.7675 12.0886 12.7675 11.9005 12.6665 11.7694L9.67548 7.88727C9.60814 7.80176 9.50713 7.75046 9.39489 7.75046H7.17826C7.03236 7.75046 6.94818 7.92718 7.03797 8.04119L9.91117 11.7694Z" fill="white"/>
<defs>
<linearGradient id="paint0_linear" x1="14.8567" y1="11.4247" x2="12.1928" y2="11.7235" gradientUnits="userSpaceOnUse">
<stop stop-color="white"/>
<stop offset="1" stop-color="white" stop-opacity="0.4"/>
</linearGradient>
</defs>
</svg>
