<svg width="512" height="512" viewBox="0 0 512 512" fill="none" xmlns="http://www.w3.org/2000/svg">
<circle cx="256" cy="256" r="256" fill="#3368F1"/>
<path fill-rule="evenodd" clip-rule="evenodd" d="M274.077 311.142L192.912 373.848L248.041 416.322C252.675 419.892 259.323 419.892 263.957 416.322L399.095 312.399L335.673 263.672L274.077 311.142ZM246.28 317.584L221.703 298.643L221.667 298.712L106.002 210.924C106.002 210.943 106.002 210.962 106.002 210.981L106.002 222.185C106.001 222.24 106 222.296 106 222.352L106 300.694C106 304.661 107.813 308.231 110.835 310.611L182.914 366.145L246.28 317.584ZM112.048 200.132L175.343 248.761L248.043 192.734C248.693 192.233 249.383 191.802 250.102 191.442L319.626 138.161L263.959 95.3522C259.325 91.7822 252.677 91.7822 248.043 95.3522L112.048 200.132ZM329.75 145.947L266.322 194.555L345.84 255.837L345.782 255.881L405.937 302.097C405.977 301.696 405.998 301.294 405.998 300.892L405.998 289.499C405.999 289.441 406 289.382 406 289.323L406 210.783C406 207.014 404.187 203.246 401.165 200.866L329.75 145.947Z" fill="white"/>
</svg>
